<svg xmlns="http://www.w3.org/2000/svg" xmlns:xlink="http://www.w3.org/1999/xlink" width="400" zoomAndPan="magnify" viewBox="0 0 300 299.999988" height="400" preserveAspectRatio="xMidYMid meet" version="1.0"><defs><filter x="0%" y="0%" width="100%" height="100%" id="aa6c063e50"><feColorMatrix values="0 0 0 0 1 0 0 0 0 1 0 0 0 0 1 0 0 0 1 0" color-interpolation-filters="sRGB"/></filter><clipPath id="1883b11b0d"><path d="M 27.652344 43.253906 L 272.152344 43.253906 L 272.152344 257.003906 L 27.652344 257.003906 Z M 27.652344 43.253906 " clip-rule="nonzero"/></clipPath><mask id="7e57aacaf7"><g filter="url(#aa6c063e50)"><rect x="-30" width="360" fill="#000000" y="-29.999999" height="359.999986" fill-opacity="0.25"/></g></mask><clipPath id="33269732aa"><path d="M 0.652344 85 L 50 85 L 50 129 L 0.652344 129 Z M 0.652344 85 " clip-rule="nonzero"/></clipPath><clipPath id="f8236d0672"><path d="M 0.652344 147 L 133 147 L 133 214 L 0.652344 214 Z M 0.652344 147 " clip-rule="nonzero"/></clipPath><clipPath id="73b83e1ea8"><path d="M 157 147 L 245.152344 147 L 245.152344 214 L 157 214 Z M 157 147 " clip-rule="nonzero"/></clipPath><clipPath id="37a4b59a30"><path d="M 221 85 L 245.152344 85 L 245.152344 129 L 221 129 Z M 221 85 " clip-rule="nonzero"/></clipPath><clipPath id="515cccd16e"><path d="M 0.652344 0.253906 L 245.152344 0.253906 L 245.152344 48 L 0.652344 48 Z M 0.652344 0.253906 " clip-rule="nonzero"/></clipPath><clipPath id="7dd2c0df50"><rect x="0" width="246" y="0" height="215"/></clipPath><mask id="1d73b71414"><g filter="url(#aa6c063e50)"><rect x="-30" width="360" fill="#000000" y="-29.999999" height="359.999986" fill-opacity="0.5"/></g></mask><clipPath id="edf13a8371"><path d="M 0.28125 0.238281 L 33 0.238281 L 33 31.199219 L 0.28125 31.199219 Z M 0.28125 0.238281 " clip-rule="nonzero"/></clipPath><clipPath id="771e634db6"><rect x="0" width="34" y="0" height="32"/></clipPath><mask id="4326612784"><g filter="url(#aa6c063e50)"><rect x="-30" width="360" fill="#000000" y="-29.999999" height="359.999986" fill-opacity="0.5"/></g></mask><clipPath id="7edd19a976"><path d="M 0.679688 0.238281 L 133.640625 0.238281 L 133.640625 89 L 0.679688 89 Z M 0.679688 0.238281 " clip-rule="nonzero"/></clipPath><clipPath id="70c4d23918"><rect x="0" width="134" y="0" height="90"/></clipPath><mask id="d4b63f3d05"><g filter="url(#aa6c063e50)"><rect x="-30" width="360" fill="#000000" y="-29.999999" height="359.999986" fill-opacity="0.25"/></g></mask><clipPath id="c6e465894c"><path d="M 0.558594 1 L 5.839844 1 L 5.839844 46 L 0.558594 46 Z M 0.558594 1 " clip-rule="nonzero"/></clipPath><clipPath id="a3829ad9d3"><rect x="0" width="6" y="0" height="47"/></clipPath><mask id="04e9b888d7"><g filter="url(#aa6c063e50)"><rect x="-30" width="360" fill="#000000" y="-29.999999" height="359.999986" fill-opacity="0.25"/></g></mask><clipPath id="a9caa0c5f9"><path d="M 0.0390625 0.238281 L 36 0.238281 L 36 89 L 0.0390625 89 Z M 0.0390625 0.238281 " clip-rule="nonzero"/></clipPath><clipPath id="10e00d9454"><rect x="0" width="37" y="0" height="90"/></clipPath><mask id="e7826c6f3b"><g filter="url(#aa6c063e50)"><rect x="-30" width="360" fill="#000000" y="-29.999999" height="359.999986" fill-opacity="0.75"/></g></mask><clipPath id="9b74c71151"><path d="M 0.359375 1 L 28.679688 1 L 28.679688 41 L 0.359375 41 Z M 0.359375 1 " clip-rule="nonzero"/></clipPath><clipPath id="5c82cb467b"><rect x="0" width="29" y="0" height="41"/></clipPath><mask id="7923a9eb10"><g filter="url(#aa6c063e50)"><rect x="-30" width="360" fill="#000000" y="-29.999999" height="359.999986" fill-opacity="0.75"/></g></mask><clipPath id="baae6cfb30"><path d="M 0.28125 0.0390625 L 11 0.0390625 L 11 10.601562 L 0.28125 10.601562 Z M 0.28125 0.0390625 " clip-rule="nonzero"/></clipPath><clipPath id="1312b89833"><rect x="0" width="12" y="0" height="11"/></clipPath><mask id="fea34d4c8b"><g filter="url(#aa6c063e50)"><rect x="-30" width="360" fill="#000000" y="-29.999999" height="359.999986" fill-opacity="0.5"/></g></mask><clipPath id="00770b3e0e"><path d="M 0.0390625 0.28125 L 79 0.28125 L 79 62.679688 L 0.0390625 62.679688 Z M 0.0390625 0.28125 " clip-rule="nonzero"/></clipPath><clipPath id="6ed30cd078"><rect x="0" width="79" y="0" height="63"/></clipPath><mask id="61ad0dca15"><g filter="url(#aa6c063e50)"><rect x="-30" width="360" fill="#000000" y="-29.999999" height="359.999986" fill-opacity="0.75"/></g></mask><clipPath id="5de09015cf"><path d="M 0.320312 0.640625 L 30 0.640625 L 30 30.398438 L 0.320312 30.398438 Z M 0.320312 0.640625 " clip-rule="nonzero"/></clipPath><clipPath id="78a52b3557"><rect x="0" width="31" y="0" height="31"/></clipPath><mask id="c39e7fbf13"><g filter="url(#aa6c063e50)"><rect x="-30" width="360" fill="#000000" y="-29.999999" height="359.999986" fill-opacity="0.75"/></g></mask><clipPath id="e97489fe2f"><path d="M 1 0.398438 L 15.398438 0.398438 L 15.398438 44.800781 L 1 44.800781 Z M 1 0.398438 " clip-rule="nonzero"/></clipPath><clipPath id="45d91ba2ca"><rect x="0" width="16" y="0" height="45"/></clipPath><mask id="b50d8edb8c"><g filter="url(#aa6c063e50)"><rect x="-30" width="360" fill="#000000" y="-29.999999" height="359.999986" fill-opacity="0.75"/></g></mask><clipPath id="7f1a18e0a3"><path d="M 0.558594 1 L 94.640625 1 L 94.640625 19 L 0.558594 19 Z M 0.558594 1 " clip-rule="nonzero"/></clipPath><clipPath id="5e5ce54810"><rect x="0" width="95" y="0" height="20"/></clipPath><mask id="81318ef507"><g filter="url(#aa6c063e50)"><rect x="-30" width="360" fill="#000000" y="-29.999999" height="359.999986" fill-opacity="0.75"/></g></mask><clipPath id="5f8152737b"><path d="M 0.0390625 0.558594 L 9.398438 0.558594 L 9.398438 13 L 0.0390625 13 Z M 0.0390625 0.558594 " clip-rule="nonzero"/></clipPath><clipPath id="61e4beb51d"><rect x="0" width="10" y="0" height="14"/></clipPath><mask id="9a52bc55bf"><g filter="url(#aa6c063e50)"><rect x="-30" width="360" fill="#000000" y="-29.999999" height="359.999986" fill-opacity="0.75"/></g></mask><clipPath id="ba5bf1c087"><path d="M 1 0.558594 L 15.359375 0.558594 L 15.359375 13 L 1 13 Z M 1 0.558594 " clip-rule="nonzero"/></clipPath><clipPath id="8c3a7504c3"><rect x="0" width="16" y="0" height="14"/></clipPath><mask id="7ff8df3d19"><g filter="url(#aa6c063e50)"><rect x="-30" width="360" fill="#000000" y="-29.999999" height="359.999986" fill-opacity="0.5"/></g></mask><clipPath id="6b7aeca87e"><path d="M 1 0.558594 L 96.398438 0.558594 L 96.398438 13 L 1 13 Z M 1 0.558594 " clip-rule="nonzero"/></clipPath><clipPath id="7e8304f151"><rect x="0" width="97" y="0" height="14"/></clipPath><mask id="b070b73f5b"><g filter="url(#aa6c063e50)"><rect x="-30" width="360" fill="#000000" y="-29.999999" height="359.999986" fill-opacity="0.75"/></g></mask><clipPath id="fefd5978f5"><path d="M 0.320312 1 L 11.359375 1 L 11.359375 15 L 0.320312 15 Z M 0.320312 1 " clip-rule="nonzero"/></clipPath><clipPath id="824a276e6a"><rect x="0" width="12" y="0" height="15"/></clipPath><mask id="7fa5d77365"><g filter="url(#aa6c063e50)"><rect x="-30" width="360" fill="#000000" y="-29.999999" height="359.999986" fill-opacity="0.75"/></g></mask><clipPath id="131dae44b9"><rect x="0" width="17" y="0" height="15"/></clipPath><mask id="c9ffbc9790"><g filter="url(#aa6c063e50)"><rect x="-30" width="360" fill="#000000" y="-29.999999" height="359.999986" fill-opacity="0.5"/></g></mask><clipPath id="87f2579da3"><path d="M 0.160156 1 L 97 1 L 97 15 L 0.160156 15 Z M 0.160156 1 " clip-rule="nonzero"/></clipPath><clipPath id="3129a84b16"><rect x="0" width="98" y="0" height="15"/></clipPath><mask id="b6a7337063"><g filter="url(#aa6c063e50)"><rect x="-30" width="360" fill="#000000" y="-29.999999" height="359.999986" fill-opacity="0.25"/></g></mask><clipPath id="98a239c095"><path d="M 0.398438 0.519531 L 57.761719 0.519531 L 57.761719 56.921875 L 0.398438 56.921875 Z M 0.398438 0.519531 " clip-rule="nonzero"/></clipPath><clipPath id="6084969b59"><rect x="0" width="58" y="0" height="57"/></clipPath><mask id="4d5daefcdf"><g filter="url(#aa6c063e50)"><rect x="-30" width="360" fill="#000000" y="-29.999999" height="359.999986" fill-opacity="0.5"/></g></mask><clipPath id="4dccff0b3a"><path d="M 0.199219 90 L 7 90 L 7 97 L 0.199219 97 Z M 0.199219 90 " clip-rule="nonzero"/></clipPath><clipPath id="7655ec4095"><path d="M 0.199219 120 L 12 120 L 12 131 L 0.199219 131 Z M 0.199219 120 " clip-rule="nonzero"/></clipPath><mask id="ff9a7fd8f8"><g filter="url(#aa6c063e50)"><rect x="-121" width="432" fill="#000000" y="-134.999997" height="431.999983" fill-opacity="0.75"/></g></mask><clipPath id="229529b92e"><path d="M 0.199219 0.121094 L 11.480469 0.121094 L 11.480469 10.921875 L 0.199219 10.921875 Z M 0.199219 0.121094 " clip-rule="nonzero"/></clipPath><clipPath id="3357b350a4"><rect x="0" width="12" y="0" height="11"/></clipPath><clipPath id="4307aa3e80"><path d="M 113 0.121094 L 128 0.121094 L 128 15 L 113 15 Z M 113 0.121094 " clip-rule="nonzero"/></clipPath><mask id="3c549e70e3"><g filter="url(#aa6c063e50)"><rect x="-121" width="432" fill="#000000" y="-134.999997" height="431.999983" fill-opacity="0.75"/></g></mask><clipPath id="f739cf14e1"><path d="M 0.480469 0.121094 L 14.398438 0.121094 L 14.398438 14 L 0.480469 14 Z M 0.480469 0.121094 " clip-rule="nonzero"/></clipPath><clipPath id="1a3350d7a4"><rect x="0" width="15" y="0" height="15"/></clipPath><clipPath id="be49a3461d"><rect x="0" width="189" y="0" height="157"/></clipPath></defs><g clip-path="url(#1883b11b0d)"><g mask="url(#7e57aacaf7)"><g transform="matrix(1, 0, 0, 1, 27, 43)"><g clip-path="url(#7dd2c0df50)"><g clip-path="url(#33269732aa)"><path fill="#445" d="M 6.902344 122.085938 C 3.039062 118.226562 0.652344 112.890625 0.652344 107.003906 C 0.652344 95.214844 10.207031 85.664062 21.992188 85.664062 L 35.882812 85.664062 C 37.035156 88.953125 40.164062 91.3125 43.847656 91.3125 L 49.753906 91.3125 L 49.753906 128.335938 L 21.992188 128.335938 C 16.101562 128.335938 10.765625 125.945312 6.90625 122.085938 Z M 6.902344 122.085938 " fill-opacity="1" fill-rule="nonzero"/></g><g clip-path="url(#f8236d0672)"><path fill="#445" d="M 118.300781 147.988281 L 132.191406 147.988281 L 132.191406 161.488281 L 130.949219 161.488281 C 129.660156 161.488281 128.609375 162.535156 128.609375 163.828125 L 128.609375 189.722656 C 128.609375 191.011719 129.660156 192.0625 130.949219 192.0625 L 132.191406 192.0625 L 132.191406 213.6875 L 21.992188 213.6875 C 16.101562 213.6875 10.765625 211.296875 6.90625 207.4375 C 3.042969 203.574219 0.65625 198.238281 0.65625 192.347656 C 0.65625 180.5625 10.210938 171.007812 21.996094 171.007812 L 44.382812 171.007812 C 44.285156 183.207031 55.589844 192.402344 72.074219 192.402344 C 90.929688 192.402344 109.527344 180.375 113.535156 165.582031 L 118.304688 147.980469 Z M 118.300781 147.988281 " fill-opacity="1" fill-rule="nonzero"/></g><g clip-path="url(#73b83e1ea8)"><path fill="#445" d="M 239.089844 177.265625 C 242.953125 181.121094 245.339844 186.457031 245.339844 192.347656 C 245.339844 204.132812 235.785156 213.6875 224 213.6875 L 157.1875 213.6875 L 157.1875 192.066406 L 158.429688 192.066406 C 159.71875 192.066406 160.769531 191.015625 160.769531 189.722656 L 160.769531 163.832031 C 160.769531 162.535156 159.71875 161.488281 158.429688 161.488281 L 157.1875 161.488281 L 157.1875 147.988281 L 199.167969 147.988281 C 199.121094 148.546875 199.097656 149.109375 199.097656 149.679688 C 199.097656 155.570312 201.488281 160.902344 205.347656 164.769531 C 209.210938 168.632812 214.542969 171.015625 220.433594 171.015625 L 223.996094 171.015625 C 229.890625 171.015625 235.222656 173.40625 239.085938 177.265625 Z M 239.089844 177.265625 " fill-opacity="1" fill-rule="nonzero"/></g><g clip-path="url(#37a4b59a30)"><path fill="#445" d="M 239.089844 91.914062 C 242.953125 95.773438 245.339844 101.109375 245.339844 107.003906 C 245.339844 118.785156 235.785156 128.339844 224 128.339844 L 221.371094 128.339844 L 221.371094 86.425781 C 221.371094 86.167969 221.371094 85.917969 221.363281 85.664062 L 224 85.664062 C 229.894531 85.664062 235.226562 88.054688 239.085938 91.914062 Z M 239.089844 91.914062 " fill-opacity="1" fill-rule="nonzero"/></g><g clip-path="url(#515cccd16e)"><path fill="#445" d="M 6.902344 36.738281 C 3.042969 32.875 0.652344 27.542969 0.652344 21.648438 C 0.652344 9.867188 10.207031 0.3125 21.992188 0.3125 L 224.003906 0.3125 C 229.898438 0.3125 235.230469 2.699219 239.089844 6.558594 C 242.949219 10.421875 245.339844 15.757812 245.339844 21.648438 C 245.339844 33.429688 235.785156 42.988281 224 42.988281 L 201.121094 42.988281 C 196.035156 42.988281 191.363281 44.769531 187.699219 47.742188 C 186.925781 47.628906 186.144531 47.546875 185.355469 47.488281 L 185.355469 31.667969 L 199.210938 31.667969 C 200.496094 31.667969 201.539062 30.625 201.539062 29.339844 L 201.539062 16.644531 C 201.539062 15.355469 200.496094 14.316406 199.210938 14.316406 L 170.425781 14.316406 C 169.136719 14.316406 168.097656 15.359375 168.097656 16.644531 L 168.097656 29.339844 C 168.097656 30.628906 169.140625 31.667969 170.425781 31.667969 L 171.128906 31.667969 L 171.128906 47.371094 L 92.25 47.371094 C 91.425781 43.574219 88.050781 40.726562 84.007812 40.726562 L 43.847656 40.726562 C 41.628906 40.726562 39.609375 41.585938 38.105469 42.988281 L 21.992188 42.988281 C 16.101562 42.988281 10.765625 40.597656 6.90625 36.738281 Z M 6.902344 36.738281 " fill-opacity="1" fill-rule="nonzero"/></g><path fill="#445" d="M 236.964844 149.820312 C 236.964844 158.171875 230.191406 164.941406 221.84375 164.941406 C 213.492188 164.941406 206.71875 158.171875 206.71875 149.820312 C 206.71875 149.199219 206.757812 148.589844 206.832031 147.988281 L 227.226562 147.988281 L 227.226562 135.800781 L 221.371094 135.800781 L 221.371094 134.710938 C 221.527344 134.707031 221.683594 134.703125 221.84375 134.703125 C 230.191406 134.703125 236.964844 141.472656 236.964844 149.824219 Z M 236.964844 149.820312 " fill-opacity="1" fill-rule="nonzero"/><path fill="#445" d="M 49.917969 147.988281 L 45.324219 164.9375 L 36.871094 164.9375 C 28.519531 164.9375 21.75 158.167969 21.75 149.816406 C 21.75 141.464844 28.519531 134.695312 36.871094 134.695312 L 49.753906 134.695312 L 49.753906 135.796875 L 44.378906 135.796875 L 44.378906 147.984375 L 49.917969 147.984375 Z M 49.917969 147.988281 " fill-opacity="1" fill-rule="nonzero"/></g></g></g></g><path fill="#445" d="M 184.191406 190.988281 L 159.191406 190.988281 L 159.191406 204.488281 L 184.191406 204.488281 Z M 184.191406 190.988281 " fill-opacity="1" fill-rule="nonzero"/><path fill="#445" d="M 184.191406 235.0625 L 159.191406 235.0625 L 159.191406 256.6875 L 184.191406 256.6875 Z M 184.191406 235.0625 " fill-opacity="1" fill-rule="nonzero"/><g mask="url(#1d73b71414)"><g transform="matrix(1, 0, 0, 1, 155, 204)"><g clip-path="url(#771e634db6)"><g clip-path="url(#edf13a8371)"><path fill="#445" d="M 32.769531 2.828125 L 32.769531 28.722656 C 32.769531 30.011719 31.71875 31.0625 30.429688 31.0625 L 2.949219 31.0625 C 1.65625 31.0625 0.605469 30.011719 0.605469 28.722656 L 0.605469 2.828125 C 0.605469 1.535156 1.65625 0.488281 2.949219 0.488281 L 30.429688 0.488281 C 31.71875 0.488281 32.769531 1.535156 32.769531 2.828125 Z M 32.769531 2.828125 " fill-opacity="1" fill-rule="nonzero"/></g></g></g></g><path fill="#445" d="M 185.429688 235.796875 L 157.949219 235.796875 C 156.253906 235.796875 154.871094 234.417969 154.871094 232.722656 L 154.871094 206.824219 C 154.871094 205.128906 156.253906 203.75 157.949219 203.75 L 185.429688 203.75 C 187.125 203.75 188.503906 205.128906 188.503906 206.824219 L 188.503906 232.722656 C 188.503906 234.417969 187.125 235.796875 185.429688 235.796875 Z M 157.949219 205.21875 C 157.0625 205.21875 156.339844 205.941406 156.339844 206.828125 L 156.339844 232.722656 C 156.339844 233.609375 157.0625 234.332031 157.949219 234.332031 L 185.429688 234.332031 C 186.3125 234.332031 187.035156 233.609375 187.035156 232.722656 L 187.035156 206.828125 C 187.035156 205.941406 186.3125 205.21875 185.429688 205.21875 Z M 157.949219 205.21875 " fill-opacity="1" fill-rule="nonzero"/><g mask="url(#4326612784)"><g transform="matrix(1, 0, 0, 1, 115, 90)"><g clip-path="url(#70c4d23918)"><g clip-path="url(#7edd19a976)"><path fill="#445" d="M 133.375 39.421875 L 133.375 88.796875 L 39.855469 88.796875 L 39.855469 39.421875 C 39.855469 28.636719 35.480469 18.875 28.417969 11.808594 C 21.351562 4.742188 11.589844 0.371094 0.804688 0.371094 L 83.128906 0.371094 L 83.128906 27.203125 C 76.652344 28.714844 71.832031 34.527344 71.832031 41.464844 C 71.832031 49.554688 78.386719 56.113281 86.480469 56.113281 C 87.117188 56.113281 87.746094 56.074219 88.363281 55.992188 C 88.976562 56.074219 89.605469 56.113281 90.242188 56.113281 C 98.332031 56.113281 104.890625 49.554688 104.890625 41.464844 C 104.890625 35.957031 101.851562 31.160156 97.355469 28.65625 L 97.355469 0.488281 C 106.929688 1.222656 115.539062 5.410156 121.9375 11.808594 C 129.003906 18.875 133.375 28.636719 133.375 39.421875 Z M 133.375 39.421875 " fill-opacity="1" fill-rule="nonzero"/></g></g></g></g><path fill="#445" d="M 249.109375 179.53125 L 154.121094 179.53125 L 154.121094 129.421875 C 154.121094 119.191406 150.136719 109.570312 142.898438 102.328125 C 135.792969 95.222656 129.648438 91.109375 119.28125 91.109375 L 119.28125 89.640625 L 198.863281 89.640625 L 198.863281 117.785156 L 198.296875 117.917969 C 191.980469 119.394531 187.566406 124.964844 187.566406 131.464844 C 187.566406 139.140625 193.808594 145.382812 201.480469 145.382812 C 202.085938 145.382812 202.6875 145.34375 203.265625 145.265625 L 203.363281 145.253906 L 203.457031 145.265625 C 204.039062 145.34375 204.640625 145.382812 205.242188 145.382812 C 212.914062 145.382812 219.15625 139.140625 219.15625 131.464844 C 219.15625 126.417969 216.414062 121.757812 212 119.300781 L 211.621094 119.089844 L 211.621094 89.695312 L 212.414062 89.757812 C 221.847656 90.480469 230.742188 94.574219 237.457031 101.292969 C 244.972656 108.804688 249.109375 118.796875 249.109375 129.421875 Z M 155.589844 178.066406 L 247.640625 178.066406 L 247.640625 129.421875 C 247.640625 119.1875 243.65625 109.566406 236.417969 102.328125 C 230.140625 96.050781 221.882812 92.148438 213.09375 91.292969 L 213.09375 118.238281 C 217.75 121.003906 220.628906 126.03125 220.628906 131.464844 C 220.628906 139.949219 213.726562 146.851562 205.246094 146.851562 C 204.613281 146.851562 203.980469 146.8125 203.363281 146.734375 C 202.75 146.8125 202.117188 146.851562 201.484375 146.851562 C 193 146.851562 186.097656 139.949219 186.097656 131.464844 C 186.097656 124.476562 190.714844 118.457031 197.398438 116.632812 L 197.398438 91.105469 L 129.136719 91.105469 C 134.679688 92.941406 139.097656 96.445312 143.941406 101.289062 C 151.453125 108.804688 155.589844 118.796875 155.589844 129.421875 Z M 155.589844 178.066406 " fill-opacity="1" fill-rule="nonzero"/><g mask="url(#d4b63f3d05)"><g transform="matrix(1, 0, 0, 1, 76, 133)"><g clip-path="url(#a3829ad9d3)"><g clip-path="url(#c6e465894c)"><path fill="#445" d="M 5.609375 1.316406 L 5.609375 40.667969 L 4.222656 45.800781 L 0.753906 45.800781 L 0.753906 1.316406 Z M 5.609375 1.316406 " fill-opacity="1" fill-rule="nonzero"/></g></g></g></g><g mask="url(#04e9b888d7)"><g transform="matrix(1, 0, 0, 1, 119, 90)"><g clip-path="url(#10e00d9454)"><g clip-path="url(#a9caa0c5f9)"><path fill="#445" d="M 35.851562 39.421875 L 35.851562 88.796875 L 29.605469 88.796875 L 30.921875 83.941406 L 30.996094 83.941406 L 30.996094 39.421875 C 30.996094 21.792969 17.589844 7.238281 0.4375 5.421875 L 0.4375 2.160156 C 0.4375 1.601562 0.382812 1.050781 0.277344 0.523438 C 9.675781 1.355469 18.117188 5.511719 24.414062 11.808594 C 31.480469 18.875 35.851562 28.636719 35.851562 39.421875 Z M 35.851562 39.421875 " fill-opacity="1" fill-rule="nonzero"/></g></g></g></g><path fill="#445" d="M 77.488281 134.316406 L 76.023438 134.316406 L 76.023438 178.800781 L 77.488281 178.800781 Z M 77.488281 134.316406 " fill-opacity="1" fill-rule="nonzero"/><path fill="#445" d="M 155.585938 179.535156 L 147.648438 179.535156 L 149.265625 173.566406 L 149.265625 129.425781 C 149.265625 112.265625 136.40625 97.960938 119.359375 96.152344 L 118.703125 96.085938 L 118.703125 92.164062 C 118.703125 91.652344 118.65625 91.152344 118.558594 90.667969 L 118.371094 89.707031 L 119.347656 89.792969 C 128.609375 90.613281 137.34375 94.691406 143.941406 101.289062 C 151.453125 108.804688 155.589844 118.796875 155.589844 129.421875 L 155.589844 179.53125 Z M 149.566406 178.066406 L 154.117188 178.066406 L 154.117188 129.425781 C 154.117188 119.191406 150.132812 109.570312 142.898438 102.328125 C 136.765625 96.199219 128.710938 92.320312 120.136719 91.347656 C 120.160156 91.617188 120.171875 91.890625 120.171875 92.160156 L 120.171875 94.765625 C 128.4375 95.800781 136.058594 99.773438 141.695312 106 C 147.523438 112.433594 150.734375 120.753906 150.734375 129.421875 L 150.734375 174.675781 L 150.488281 174.675781 L 149.570312 178.0625 Z M 149.566406 178.066406 " fill-opacity="1" fill-rule="nonzero"/><g mask="url(#e7826c6f3b)"><g transform="matrix(1, 0, 0, 1, 81, 133)"><g clip-path="url(#5c82cb467b)"><g clip-path="url(#9b74c71151)"><path fill="#445" d="M 28.433594 6.410156 L 28.433594 40.941406 L 0.609375 40.941406 L 0.609375 1.3125 L 18.335938 1.3125 L 26.195312 6.292969 C 26.925781 6.753906 27.761719 6.746094 28.433594 6.410156 Z M 28.433594 6.410156 " fill-opacity="1" fill-rule="nonzero"/></g></g></g></g><g mask="url(#7923a9eb10)"><g transform="matrix(1, 0, 0, 1, 119, 95)"><g clip-path="url(#1312b89833)"><g clip-path="url(#baae6cfb30)"><path fill="#445" d="M 10.714844 3.1875 C 6.863281 4.910156 3.382812 7.328125 0.4375 10.28125 L 0.4375 0.417969 C 4.0625 0.804688 7.519531 1.757812 10.714844 3.1875 Z M 10.714844 3.1875 " fill-opacity="1" fill-rule="nonzero"/></g></g></g></g><path fill="#445" d="M 149.996094 129.421875 L 149.996094 173.941406 L 109.433594 173.941406 L 109.433594 139.410156 C 110.164062 139.046875 110.699219 138.304688 110.699219 137.371094 L 110.699219 134.316406 L 111.007812 134.316406 C 115.664062 134.316406 119.4375 130.539062 119.4375 125.882812 L 119.4375 105.28125 C 122.386719 102.328125 125.863281 99.910156 129.71875 98.191406 C 141.660156 103.527344 150 115.519531 150 129.421875 Z M 149.996094 129.421875 " fill-opacity="1" fill-rule="nonzero"/><g mask="url(#fea34d4c8b)"><g transform="matrix(1, 0, 0, 1, 71, 173)"><g clip-path="url(#6ed30cd078)"><g clip-path="url(#00770b3e0e)"><path fill="#445" d="M 78.996094 0.667969 L 78.921875 0.941406 L 77.605469 5.796875 L 74.300781 17.984375 L 69.535156 35.585938 C 65.527344 50.375 46.925781 62.40625 28.074219 62.40625 C 9.21875 62.40625 -2.859375 50.375 1.148438 35.585938 L 5.917969 17.984375 L 9.21875 5.796875 L 10.609375 0.664062 L 78.996094 0.664062 Z M 78.996094 0.667969 " fill-opacity="1" fill-rule="nonzero"/></g></g></g></g><path fill="#445" d="M 99.074219 236.140625 C 88.511719 236.140625 79.605469 232.417969 74.636719 225.921875 C 70.855469 220.976562 69.71875 214.75 71.441406 208.394531 L 81.050781 172.9375 L 150.960938 172.9375 L 150.632812 174.140625 L 141.242188 208.78125 C 137.152344 223.867188 118.238281 236.140625 99.074219 236.140625 Z M 82.171875 174.402344 L 72.859375 208.777344 C 71.234375 214.769531 72.253906 220.386719 75.804688 225.027344 C 80.492188 231.15625 88.976562 234.671875 99.074219 234.671875 C 117.617188 234.671875 135.898438 222.882812 139.828125 208.394531 L 149.039062 174.402344 Z M 82.171875 174.402344 " fill-opacity="1" fill-rule="nonzero"/><path fill="#445" d="M 203.363281 145.992188 C 202.746094 146.074219 202.117188 146.117188 201.480469 146.117188 C 193.386719 146.117188 186.832031 139.558594 186.832031 131.46875 C 186.832031 124.53125 191.652344 118.714844 198.128906 117.203125 L 198.128906 118.660156 C 193.636719 121.160156 190.597656 125.960938 190.597656 131.46875 C 190.597656 138.921875 196.160156 145.070312 203.363281 145.992188 Z M 203.363281 145.992188 " fill-opacity="1" fill-rule="nonzero"/><g mask="url(#61ad0dca15)"><g transform="matrix(1, 0, 0, 1, 190, 116)"><g clip-path="url(#78a52b3557)"><g clip-path="url(#5de09015cf)"><path fill="#445" d="M 22.355469 2.660156 C 20.25 1.484375 17.824219 0.816406 15.242188 0.816406 C 14.605469 0.816406 13.976562 0.859375 13.363281 0.941406 C 11.484375 1.179688 9.714844 1.777344 8.128906 2.660156 C 3.632812 5.160156 0.59375 9.960938 0.59375 15.46875 C 0.59375 22.921875 6.160156 29.070312 13.359375 29.992188 C 13.976562 30.074219 14.605469 30.117188 15.242188 30.117188 C 23.332031 30.117188 29.886719 23.558594 29.886719 15.46875 C 29.886719 9.960938 26.847656 5.160156 22.355469 2.660156 Z M 15.242188 22.265625 C 12.191406 22.265625 9.609375 20.253906 8.75 17.484375 C 8.554688 16.847656 8.445312 16.171875 8.445312 15.46875 C 8.445312 11.714844 11.488281 8.667969 15.242188 8.667969 C 18.996094 8.667969 22.039062 11.710938 22.039062 15.46875 C 22.039062 16.171875 21.933594 16.847656 21.734375 17.484375 C 20.875 20.253906 18.292969 22.265625 15.242188 22.265625 Z M 15.242188 22.265625 " fill-opacity="1" fill-rule="nonzero"/></g></g></g></g><g mask="url(#c39e7fbf13)"><g transform="matrix(1, 0, 0, 1, 197, 74)"><g clip-path="url(#45d91ba2ca)"><g clip-path="url(#e97489fe2f)"><path fill="#445" d="M 15.355469 0.671875 L 15.355469 44.660156 C 15.09375 44.511719 14.824219 44.375 14.550781 44.242188 C 14.277344 44.113281 14 43.988281 13.71875 43.875 C 13.574219 43.820312 13.433594 43.765625 13.292969 43.710938 C 13.285156 43.710938 13.28125 43.710938 13.277344 43.707031 C 13.011719 43.609375 12.738281 43.519531 12.464844 43.4375 C 12.429688 43.429688 12.394531 43.417969 12.359375 43.40625 C 12.257812 43.378906 12.152344 43.347656 12.046875 43.320312 C 11.875 43.273438 11.699219 43.230469 11.523438 43.1875 C 11.378906 43.15625 11.234375 43.128906 11.089844 43.097656 C 11.066406 43.09375 11.035156 43.089844 11.007812 43.082031 C 10.902344 43.058594 10.796875 43.039062 10.691406 43.023438 C 10.644531 43.019531 10.601562 43.007812 10.554688 43.003906 C 10.417969 42.980469 10.285156 42.960938 10.144531 42.945312 C 10.128906 42.941406 10.117188 42.941406 10.109375 42.941406 C 9.960938 42.921875 9.820312 42.90625 9.675781 42.890625 C 9.519531 42.875 9.363281 42.863281 9.203125 42.855469 C 9.066406 42.84375 8.929688 42.835938 8.796875 42.832031 C 8.613281 42.824219 8.429688 42.820312 8.242188 42.820312 C 7.605469 42.820312 6.976562 42.863281 6.363281 42.945312 C 6.023438 42.988281 5.695312 43.042969 5.359375 43.109375 C 5.164062 43.144531 4.964844 43.1875 4.769531 43.238281 C 4.726562 43.246094 4.683594 43.261719 4.632812 43.273438 C 4.523438 43.300781 4.410156 43.328125 4.300781 43.359375 C 4.167969 43.394531 4.039062 43.433594 3.910156 43.472656 C 3.820312 43.503906 3.726562 43.53125 3.636719 43.5625 C 3.527344 43.59375 3.417969 43.632812 3.3125 43.671875 C 3.207031 43.707031 3.101562 43.746094 3 43.789062 C 2.871094 43.835938 2.742188 43.886719 2.617188 43.941406 C 2.527344 43.976562 2.4375 44.015625 2.351562 44.054688 C 2.261719 44.09375 2.171875 44.132812 2.082031 44.175781 C 2.027344 44.203125 1.96875 44.230469 1.914062 44.257812 C 1.75 44.335938 1.589844 44.414062 1.429688 44.5 C 1.34375 44.542969 1.253906 44.59375 1.164062 44.644531 C 1.15625 44.648438 1.144531 44.65625 1.132812 44.664062 L 1.132812 0.675781 L 15.363281 0.675781 Z M 15.355469 0.671875 " fill-opacity="1" fill-rule="nonzero"/></g></g></g></g><path fill="#445" d="M 213.089844 119.902344 L 212 119.304688 C 211.710938 119.144531 211.46875 119.015625 211.234375 118.910156 C 210.949219 118.773438 210.691406 118.660156 210.441406 118.558594 C 210.316406 118.507812 210.1875 118.460938 210.054688 118.410156 L 209.902344 118.367188 L 209.878906 118.34375 C 209.675781 118.273438 209.472656 118.203125 209.269531 118.144531 C 209.230469 118.132812 209.183594 118.121094 209.144531 118.105469 C 209.0625 118.082031 208.964844 118.054688 208.867188 118.03125 C 208.699219 117.988281 208.53125 117.941406 208.359375 117.902344 C 208.222656 117.871094 208.085938 117.84375 207.945312 117.816406 L 207.875 117.804688 C 207.765625 117.78125 207.671875 117.765625 207.578125 117.75 L 207.554688 117.746094 C 207.527344 117.738281 207.496094 117.734375 207.46875 117.730469 L 207.425781 117.726562 C 207.304688 117.703125 207.179688 117.6875 207.058594 117.671875 L 207.011719 117.664062 C 206.875 117.648438 206.742188 117.632812 206.605469 117.617188 C 206.453125 117.601562 206.308594 117.589844 206.164062 117.582031 C 206.019531 117.570312 205.894531 117.5625 205.773438 117.558594 C 205.589844 117.550781 205.414062 117.550781 205.242188 117.550781 C 204.636719 117.550781 204.039062 117.589844 203.453125 117.664062 C 203.121094 117.707031 202.8125 117.757812 202.503906 117.820312 C 202.300781 117.859375 202.117188 117.898438 201.945312 117.941406 C 201.898438 117.953125 201.863281 117.960938 201.828125 117.972656 L 201.800781 117.980469 C 201.699219 118.003906 201.601562 118.03125 201.503906 118.058594 C 201.367188 118.09375 201.246094 118.128906 201.128906 118.167969 L 200.859375 118.257812 C 200.757812 118.289062 200.660156 118.324219 200.566406 118.359375 L 200.539062 118.367188 C 200.453125 118.398438 200.367188 118.429688 200.285156 118.464844 L 200.246094 118.480469 C 200.128906 118.519531 200.015625 118.566406 199.90625 118.613281 C 199.816406 118.648438 199.730469 118.6875 199.644531 118.722656 C 199.566406 118.757812 199.488281 118.792969 199.410156 118.828125 L 199.230469 118.914062 C 199.078125 118.988281 198.921875 119.0625 198.773438 119.144531 C 198.6875 119.1875 198.609375 119.230469 198.527344 119.277344 L 198.457031 119.3125 L 197.394531 119.835938 L 197.394531 73.933594 L 213.09375 73.933594 L 213.09375 119.898438 Z M 210.6875 117.078125 C 210.789062 117.117188 210.886719 117.15625 210.988281 117.195312 C 211.195312 117.28125 211.402344 117.371094 211.621094 117.472656 L 211.621094 75.410156 L 198.863281 75.410156 L 198.863281 117.472656 C 198.925781 117.441406 198.988281 117.414062 199.054688 117.386719 C 199.144531 117.347656 199.238281 117.308594 199.328125 117.269531 C 199.460938 117.210938 199.59375 117.15625 199.730469 117.109375 C 199.839844 117.0625 199.949219 117.023438 200.0625 116.988281 C 200.175781 116.941406 200.289062 116.902344 200.410156 116.867188 L 200.683594 116.777344 C 200.828125 116.730469 200.964844 116.691406 201.105469 116.65625 C 201.210938 116.625 201.328125 116.59375 201.449219 116.566406 C 201.503906 116.550781 201.546875 116.539062 201.601562 116.527344 C 201.789062 116.480469 202 116.433594 202.222656 116.390625 C 202.558594 116.320312 202.902344 116.265625 203.265625 116.21875 C 204.101562 116.109375 204.972656 116.0625 205.828125 116.101562 C 205.976562 116.109375 206.121094 116.117188 206.261719 116.128906 C 206.410156 116.136719 206.582031 116.148438 206.75 116.167969 C 206.890625 116.179688 207.035156 116.195312 207.179688 116.214844 C 207.210938 116.21875 207.238281 116.222656 207.257812 116.226562 C 207.394531 116.242188 207.527344 116.261719 207.664062 116.285156 C 207.71875 116.292969 207.765625 116.296875 207.816406 116.308594 C 207.925781 116.324219 208.042969 116.347656 208.15625 116.371094 L 208.238281 116.382812 C 208.394531 116.417969 208.539062 116.445312 208.6875 116.480469 C 208.875 116.519531 209.0625 116.570312 209.242188 116.621094 C 209.347656 116.644531 209.457031 116.679688 209.566406 116.710938 C 209.597656 116.71875 209.613281 116.722656 209.628906 116.730469 L 209.683594 116.742188 C 209.957031 116.828125 210.234375 116.921875 210.515625 117.023438 L 210.6875 117.089844 Z M 210.6875 117.078125 " fill-opacity="1" fill-rule="nonzero"/><path fill="#445" d="M 228.539062 59.644531 L 228.539062 72.34375 C 228.539062 73.628906 227.496094 74.671875 226.210938 74.671875 L 197.425781 74.671875 C 196.136719 74.671875 195.097656 73.628906 195.097656 72.34375 L 195.097656 59.644531 C 195.097656 58.359375 196.140625 57.320312 197.425781 57.320312 L 226.210938 57.320312 C 227.496094 57.320312 228.539062 58.363281 228.539062 59.644531 Z M 228.539062 59.644531 " fill-opacity="1" fill-rule="nonzero"/><g mask="url(#b50d8edb8c)"><g transform="matrix(1, 0, 0, 1, 154, 160)"><g clip-path="url(#5e5ce54810)"><g clip-path="url(#7f1a18e0a3)"><path fill="#445" d="M 94.371094 1.167969 L 0.851562 1.167969 L 0.851562 18.800781 L 94.371094 18.800781 Z M 94.371094 1.167969 " fill-opacity="1" fill-rule="nonzero"/></g></g></g></g><g mask="url(#81318ef507)"><g transform="matrix(1, 0, 0, 1, 71, 178)"><g clip-path="url(#61e4beb51d)"><g clip-path="url(#5f8152737b)"><path fill="#445" d="M 9.21875 0.800781 L 5.917969 12.988281 L 0.378906 12.988281 L 0.378906 0.800781 Z M 9.21875 0.800781 " fill-opacity="1" fill-rule="nonzero"/></g></g></g></g><g mask="url(#9a52bc55bf)"><g transform="matrix(1, 0, 0, 1, 144, 178)"><g clip-path="url(#8c3a7504c3)"><g clip-path="url(#ba5bf1c087)"><path fill="#445" d="M 15.191406 0.800781 L 15.191406 12.988281 L 1.300781 12.988281 L 4.605469 0.800781 Z M 15.191406 0.800781 " fill-opacity="1" fill-rule="nonzero"/></g></g></g></g><g mask="url(#7ff8df3d19)"><g transform="matrix(1, 0, 0, 1, 158, 178)"><g clip-path="url(#7e8304f151)"><g clip-path="url(#6b7aeca87e)"><path fill="#445" d="M 96.226562 0.800781 L 1.191406 0.800781 L 1.191406 12.988281 L 96.226562 12.988281 Z M 96.226562 0.800781 " fill-opacity="1" fill-rule="nonzero"/></g></g></g></g><g mask="url(#b070b73f5b)"><g transform="matrix(1, 0, 0, 1, 70, 177)"><g clip-path="url(#824a276e6a)"><g clip-path="url(#fefd5978f5)"><path fill="#445" d="M 7.476562 14.722656 L 0.644531 14.722656 L 0.644531 1.066406 L 11.179688 1.066406 Z M 2.113281 13.253906 L 6.355469 13.253906 L 9.261719 2.53125 L 2.113281 2.53125 Z M 2.113281 13.253906 " fill-opacity="1" fill-rule="nonzero"/></g></g></g></g><g mask="url(#7fa5d77365)"><g transform="matrix(1, 0, 0, 1, 144, 177)"><g clip-path="url(#131dae44b9)"><path fill="#445" d="M 15.925781 14.722656 L 0.34375 14.722656 L 4.046875 1.066406 L 15.925781 1.066406 Z M 2.261719 13.253906 L 14.457031 13.253906 L 14.457031 2.53125 L 5.167969 2.53125 Z M 2.261719 13.253906 " fill-opacity="1" fill-rule="nonzero"/></g></g></g><g mask="url(#c9ffbc9790)"><g transform="matrix(1, 0, 0, 1, 158, 177)"><g clip-path="url(#3129a84b16)"><g clip-path="url(#87f2579da3)"><path fill="#445" d="M 96.960938 14.722656 L 0.453125 14.722656 L 0.453125 1.066406 L 96.960938 1.066406 Z M 1.921875 13.253906 L 95.492188 13.253906 L 95.492188 2.53125 L 1.921875 2.53125 Z M 1.921875 13.253906 " fill-opacity="1" fill-rule="nonzero"/></g></g></g></g><g mask="url(#b6a7337063)"><g transform="matrix(1, 0, 0, 1, 62, 83)"><g clip-path="url(#6084969b59)"><g clip-path="url(#98a239c095)"><path fill="#445" d="M 57.277344 7.523438 C 56.515625 3.648438 53.097656 0.726562 49.003906 0.726562 L 8.84375 0.726562 C 4.1875 0.726562 0.410156 4.503906 0.410156 9.160156 L 0.410156 42.878906 C 0.410156 47.539062 4.1875 51.3125 8.84375 51.3125 L 37.335938 51.3125 L 45.191406 56.292969 C 45.925781 56.753906 46.757812 56.746094 47.429688 56.410156 C 48.160156 56.046875 48.695312 55.304688 48.695312 54.367188 L 48.695312 51.3125 L 49.003906 51.3125 C 53.660156 51.3125 57.4375 47.539062 57.4375 42.878906 L 57.4375 9.160156 C 57.4375 8.601562 57.382812 8.050781 57.277344 7.523438 Z M 38.9375 28.101562 C 38.9375 31.980469 38.066406 34.976562 36.324219 37.078125 C 34.582031 39.183594 32.125 40.234375 28.953125 40.234375 C 25.78125 40.234375 23.285156 39.179688 21.539062 37.0625 C 21.378906 36.871094 21.226562 36.671875 21.089844 36.464844 C 19.742188 34.542969 19.023438 32.007812 18.925781 28.847656 C 18.917969 28.601562 18.914062 28.355469 18.914062 28.105469 L 18.914062 22.859375 C 18.914062 18.980469 19.785156 15.984375 21.527344 13.878906 C 23.269531 11.777344 25.734375 10.722656 28.914062 10.722656 C 31.207031 10.722656 33.125 11.273438 34.671875 12.375 C 35.273438 12.800781 35.824219 13.308594 36.308594 13.902344 C 36.878906 14.589844 37.355469 15.371094 37.738281 16.246094 C 38.535156 18.058594 38.933594 20.269531 38.933594 22.878906 L 38.933594 28.105469 Z M 38.9375 28.101562 " fill-opacity="1" fill-rule="nonzero"/></g></g></g></g><path fill="#445" d="M 108.414062 140.386719 C 107.855469 140.386719 107.300781 140.230469 106.804688 139.917969 L 99.125 135.050781 L 70.847656 135.050781 C 65.792969 135.050781 61.679688 130.9375 61.679688 125.882812 L 61.679688 92.160156 C 61.679688 87.109375 65.792969 82.996094 70.847656 82.996094 L 111.007812 82.996094 C 115.371094 82.996094 119.15625 86.101562 119.996094 90.382812 C 120.113281 90.957031 120.171875 91.554688 120.171875 92.160156 L 120.171875 125.882812 C 120.171875 130.792969 116.289062 134.816406 111.433594 135.039062 L 111.433594 137.371094 C 111.433594 138.523438 110.792969 139.554688 109.757812 140.070312 C 109.332031 140.28125 108.875 140.386719 108.414062 140.386719 Z M 70.847656 84.464844 C 66.601562 84.464844 63.148438 87.917969 63.148438 92.160156 L 63.148438 125.882812 C 63.148438 130.128906 66.601562 133.582031 70.847656 133.582031 L 99.550781 133.582031 L 107.589844 138.679688 C 108.058594 138.972656 108.613281 139 109.109375 138.757812 C 109.648438 138.488281 109.96875 137.972656 109.96875 137.375 L 109.96875 133.582031 L 111.007812 133.582031 C 115.253906 133.582031 118.703125 130.132812 118.703125 125.886719 L 118.703125 92.164062 C 118.703125 91.652344 118.65625 91.152344 118.558594 90.671875 C 117.851562 87.074219 114.675781 84.46875 111.007812 84.46875 L 70.847656 84.46875 Z M 70.847656 84.464844 " fill-opacity="1" fill-rule="nonzero"/><path fill="#445" d="M 98.3125 96.898438 C 96.566406 94.785156 94.097656 93.722656 90.914062 93.722656 C 87.730469 93.722656 85.269531 94.773438 83.527344 96.878906 C 81.785156 98.980469 80.914062 101.976562 80.914062 105.855469 L 80.914062 111.101562 C 80.914062 114.957031 81.789062 117.941406 83.539062 120.058594 C 85.289062 122.175781 87.761719 123.234375 90.953125 123.234375 C 94.148438 123.234375 96.582031 122.179688 98.324219 120.078125 C 100.066406 117.972656 100.9375 114.980469 100.9375 111.097656 L 100.9375 105.871094 C 100.9375 102.007812 100.066406 99.015625 98.3125 96.898438 Z M 94.289062 112.105469 C 94.273438 114.171875 94 115.691406 93.460938 116.65625 C 92.921875 117.621094 92.085938 118.105469 90.953125 118.105469 C 89.820312 118.105469 88.929688 117.609375 88.394531 116.613281 C 87.855469 115.621094 87.582031 114.054688 87.582031 111.910156 L 87.582031 104.574219 C 87.621094 102.65625 87.902344 101.222656 88.421875 100.273438 C 88.941406 99.328125 89.773438 98.855469 90.917969 98.855469 C 92.0625 98.855469 92.941406 99.363281 93.480469 100.382812 C 94.019531 101.402344 94.289062 102.945312 94.289062 105.007812 L 94.289062 112.109375 Z M 94.289062 112.105469 " fill-opacity="1" fill-rule="nonzero"/><g mask="url(#4d5daefcdf)"><g transform="matrix(1, 0, 0, 1, 55, 69)"><g clip-path="url(#be49a3461d)"><g clip-path="url(#4dccff0b3a)"><path fill="#445" d="M 3.4375 96.027344 C 5.035156 96.027344 6.332031 94.730469 6.332031 93.132812 C 6.332031 91.535156 5.035156 90.242188 3.4375 90.242188 C 1.839844 90.242188 0.546875 91.535156 0.546875 93.132812 C 0.546875 94.730469 1.839844 96.027344 3.4375 96.027344 Z M 3.4375 96.027344 " fill-opacity="1" fill-rule="nonzero"/></g><g clip-path="url(#7655ec4095)"><g mask="url(#ff9a7fd8f8)"><g transform="matrix(1, 0, 0, 1, 0, 120)"><g clip-path="url(#3357b350a4)"><g clip-path="url(#229529b92e)"><path fill="#445" d="M 5.847656 10.871094 C 8.777344 10.871094 11.152344 8.496094 11.152344 5.570312 C 11.152344 2.640625 8.777344 0.265625 5.847656 0.265625 C 2.921875 0.265625 0.546875 2.640625 0.546875 5.570312 C 0.546875 8.496094 2.921875 10.871094 5.847656 10.871094 Z M 5.847656 10.871094 " fill-opacity="1" fill-rule="nonzero"/></g></g></g></g></g><path fill="#445" d="M 86.578125 155.90625 C 87.996094 155.90625 89.140625 154.757812 89.140625 153.339844 C 89.140625 151.925781 87.996094 150.777344 86.578125 150.777344 C 85.160156 150.777344 84.015625 151.925781 84.015625 153.339844 C 84.015625 154.757812 85.160156 155.90625 86.578125 155.90625 Z M 86.578125 155.90625 " fill-opacity="1" fill-rule="nonzero"/><path fill="#445" d="M 150.398438 133.765625 C 153.136719 133.765625 155.359375 131.542969 155.359375 128.808594 C 155.359375 126.070312 153.136719 123.847656 150.398438 123.847656 C 147.664062 123.847656 145.441406 126.070312 145.441406 128.808594 C 145.441406 131.542969 147.664062 133.765625 150.398438 133.765625 Z M 150.398438 133.765625 " fill-opacity="1" fill-rule="nonzero"/><g clip-path="url(#4307aa3e80)"><g mask="url(#3c549e70e3)"><g transform="matrix(1, 0, 0, 1, 113, 0)"><g clip-path="url(#1a3350d7a4)"><g clip-path="url(#f739cf14e1)"><path fill="#445" d="M 7.425781 13.765625 C 11.105469 13.765625 14.089844 10.78125 14.089844 7.101562 C 14.089844 3.421875 11.105469 0.4375 7.425781 0.4375 C 3.746094 0.4375 0.761719 3.421875 0.761719 7.101562 C 0.761719 10.78125 3.746094 13.765625 7.425781 13.765625 Z M 7.425781 13.765625 " fill-opacity="1" fill-rule="nonzero"/></g></g></g></g></g><path fill="#445" d="M 184.78125 19.71875 C 186.425781 19.71875 187.757812 18.386719 187.757812 16.742188 C 187.757812 15.097656 186.425781 13.765625 184.78125 13.765625 C 183.136719 13.765625 181.804688 15.097656 181.804688 16.742188 C 181.804688 18.386719 183.136719 19.71875 184.78125 19.71875 Z M 184.78125 19.71875 " fill-opacity="1" fill-rule="nonzero"/></g></g></g><path fill="#445" d="M 60.847656 199.871094 C 63.773438 199.871094 66.148438 197.496094 66.148438 194.570312 C 66.148438 191.640625 63.773438 189.265625 60.847656 189.265625 C 57.917969 189.265625 55.542969 191.640625 55.542969 194.570312 C 55.542969 197.496094 57.917969 199.871094 60.847656 199.871094 Z M 60.847656 199.871094 " fill-opacity="1" fill-rule="nonzero"/><path fill="#445" d="M 55.542969 162.132812 C 55.542969 160.53125 56.839844 159.238281 58.4375 159.238281 C 60.039062 159.238281 61.332031 160.53125 61.332031 162.132812 C 61.332031 163.730469 60.035156 165.027344 58.4375 165.027344 C 56.839844 165.027344 55.542969 163.730469 55.542969 162.132812 Z M 55.542969 162.132812 " fill-opacity="1" fill-rule="nonzero"/><path fill="#445" d="M 205.398438 202.765625 C 208.136719 202.765625 210.359375 200.542969 210.359375 197.804688 C 210.359375 195.070312 208.136719 192.847656 205.398438 192.847656 C 202.664062 192.847656 200.441406 195.070312 200.441406 197.804688 C 200.441406 200.542969 202.664062 202.765625 205.398438 202.765625 Z M 205.398438 202.765625 " fill-opacity="1" fill-rule="nonzero"/><path fill="#445" d="M 141.574219 224.90625 C 142.992188 224.90625 144.140625 223.757812 144.140625 222.339844 C 144.140625 220.925781 142.992188 219.777344 141.574219 219.777344 C 140.160156 219.777344 139.011719 220.925781 139.011719 222.339844 C 139.011719 223.757812 140.160156 224.90625 141.574219 224.90625 Z M 141.574219 224.90625 " fill-opacity="1" fill-rule="nonzero"/><path fill="#445" d="M 168.761719 76.101562 C 168.761719 72.417969 171.746094 69.4375 175.425781 69.4375 C 179.105469 69.4375 182.089844 72.417969 182.089844 76.101562 C 182.089844 79.785156 179.105469 82.765625 175.425781 82.765625 C 171.746094 82.765625 168.761719 79.78125 168.761719 76.101562 Z M 168.761719 76.101562 " fill-opacity="1" fill-rule="nonzero"/><path fill="#445" d="M 236.804688 85.742188 C 236.804688 84.097656 238.140625 82.765625 239.785156 82.765625 C 241.429688 82.765625 242.761719 84.097656 242.761719 85.742188 C 242.761719 87.386719 241.425781 88.71875 239.785156 88.71875 C 238.140625 88.71875 236.804688 87.386719 236.804688 85.742188 Z M 236.804688 85.742188 " fill-opacity="1" fill-rule="nonzero"/></svg>