<svg xmlns="http://www.w3.org/2000/svg" width="1080" viewBox="0 0 810 810" height="1080" version="1.0"><defs><clipPath id="l"><path d="M463.273 211.457c-29.847 1.203-47.324 3.227-59.097 4.652-9.153 1.125-15.153 1.723-24.45 3.45-12.527 2.324-33.078 7.125-43.874 10.05-6.454 1.723-10.051 2.774-15.301 4.723-5.852 2.25-13.727 7.652-18 8.102-2.25.226-3.977-.375-5.403-1.125-1.125-.602-1.949-1.649-2.546-2.7-.602-1.05-1.051-2.25-1.051-3.601.074-1.574.3-3.301 1.8-5.176 3.672-4.574 21.297-15.074 26.922-16.422 2.25-.527 3.829 0 5.102.375.977.375 1.574.75 2.25 1.422.898 1.05 2.176 2.926 2.477 4.5.296 1.578-.153 3.828-.676 5.102-.375.898-.75 1.425-1.5 2.101-1.051.899-3 2.024-4.653 2.25-1.574.223-3.597-.152-5.023-.976-1.426-.75-2.773-2.325-3.45-3.825-.6-1.425-.75-3.527-.374-5.101.375-1.574 1.722-3.375 2.773-4.348.676-.676 1.278-.976 2.25-1.277 1.352-.375 3.824-.45 5.176-.149.898.223 1.574.524 2.324 1.2 1.051.898 2.477 2.625 3 4.199.45 1.5.227 3.75-.148 5.101-.301.973-.528 1.426-1.278 2.25-1.722 1.875-6.449 4.5-10.347 6.899-4.653 2.777-12.301 7.574-15.824 8.777-1.579.598-2.477.672-3.676.598-1.2-.074-2.477-.45-3.528-1.2-1.273-.898-2.773-2.773-3.296-4.425-.454-1.649-.227-3.973.523-5.473.75-1.578 1.95-2.55 3.977-3.828 3.671-2.398 12.074-5.172 17.921-7.2 5.477-1.874 9.301-2.925 16.051-4.722 11.176-2.926 28.727-7.578 45.301-10.652 19.875-3.598 50.7-7.2 66-8.625 8.25-.824 15-1.426 18.898-1.125 1.801.074 2.704.226 3.829.75 1.125.527 2.25 1.277 3 2.402.898 1.422 1.796 3.75 1.648 5.547-.148 1.8-1.2 3.977-2.477 5.176-1.273 1.277-5.25 2.324-5.25 2.324"/></clipPath><clipPath id="a"><path d="M97.293 141.047h615.75v615.75H97.293Zm0 0"/></clipPath><clipPath id="c"><path d="M111 161h580.504v581.91H111Zm0 0"/></clipPath><clipPath id="d"><path d="M111.602 423.785c14.773-52.125 24.375-63.453 30.375-76.277 6-12.824 9.671-27.301 15.449-40.051 5.472-12.074 9.449-23.773 17.926-34.422 9.898-12.453 27.449-23.703 40.046-33.902 10.801-8.774 20.329-16.2 30.75-23.774 10.278-7.574 20.477-15.449 31.352-21.824 10.875-6.375 21.977-12.375 33.824-16.652 12-4.274 25.051-6.524 37.727-9.074 12.676-2.477 25.347-4.95 38.398-6 13.426-1.051 27.528-.149 40.875-.149 13.051-.078 24.602-1.203 38.403-.152 16.574 1.351 39 2.699 54.222 8.926 12.977 5.324 22.426 14.925 32.625 23.175 9.903 8.024 18.528 16.95 27.75 25.649 9.227 8.699 19.426 16.277 27.602 26.777 9 11.473 14.773 27.297 23.176 40.125 8.25 12.75 18.972 23.547 26.699 36.75 7.949 13.574 15.3 29.547 20.176 43.95 4.347 12.972 6.972 25.5 8.699 38.324 1.722 12.449 1.125 24.898 1.648 37.574.602 12.902 1.875 25.277 1.727 39.152-.074 15.672.824 34.797-2.926 50.024-3.375 13.726-9.375 26.25-17.023 37.574-7.801 11.402-22.801 23.476-29.403 30.527-3.449 3.672-6 4.422-7.8 8.473-2.848 6.527 1.874 19.426-2.325 29.101-5.699 12.973-24.824 33.075-35.847 38.848-6.602 3.453-11.704.078-18.75 2.625-10.579 3.75-24.602 16.05-36.977 22.426-11.625 6-22.95 10.426-34.875 15-12.3 4.726-25.125 8.699-37.95 12.824-13.124 4.277-26.698 10.203-40.05 12.3-12.676 2.028-25.2.903-38.023.528-13.125-.375-26.25-.902-39.75-2.851-14.403-2.176-29.704-4.2-43.875-9.899-15.301-6.152-34.875-17.027-44.477-26.625-6.523-6.601-6.148-19.277-12.3-20.703-8.098-1.875-21.376 17.625-34.95 22.953-15.523 6.149-40.125 14.922-54.074 9.297-13.125-5.324-27.45-24.598-28.574-39.148-1.204-16.426 23.546-50.25 28.421-54.899 1.051-1.05 2.329-.676 2.477-1.203.148-.45-.75-1.5-.824-1.574 0-.074-.824-3.598-1.278-5.399-.449-1.8-1.273-5.324-1.273-5.402v-5.547c0-1.8 0-5.476.074-5.55 0-.075.977-3.903 1.352-5.325.222-.976.824-1.8.597-2.402-.296-.676-1.648-.75-2.773-1.5-1.8-1.274-4.8-3.824-6.75-6.149-1.95-2.324-3.75-4.949-5.102-7.652-1.347-2.7-3.148-8.625-3.148-8.625s-2.773-14.25-5.477-22.875c-3.75-11.7-12-27-16.199-40.5-3.972-12.75-7.273-25.348-8.847-38.172-1.579-12.75-.75-38.625-.75-38.625m81.296 25.875c13.204 48.973 16.727 63.149 19.278 74.172 1.949 8.625 4.05 17.027 5.023 22.953.602 3.75.977 7.348.977 9.149 0 .75-.602 1.05-.227 1.648 1.653 2.625 20.7 4.352 31.051 9.902 12.676 6.825 26.55 19.723 37.95 30.598 10.652 10.277 17.25 24.453 28.652 32.703C327 638.957 342 642.41 355.352 647.36c13.199 4.875 27 13.2 39.824 12.825 12.222-.301 23.472-9.524 35.625-13.575 12.3-4.125 25.722-6.226 37.8-10.8 11.848-4.575 29.024-12.899 34.274-16.649 1.8-1.351 2.324-2.176 3.227-3.375.824-1.203 1.875-3.902 1.949-3.976 0-.075 2.398-2.774 3.597-4.2 1.204-1.425 3.528-4.199 3.528-4.277.074 0 3.074-2.098 4.5-3.223 1.5-1.05 2.847-1.8 4.426-3.152 2.097-1.875 4.199-3.75 6.898-7.2 5.398-6.823 12.977-27.148 20.852-32.847 5.398-3.828 12.148-1.203 17.472-4.277 6.153-3.375 12.074-9.375 16.727-16.574 5.926-9.227 10.875-23.399 13.426-35.852 2.546-12.672 1.722-25.797 1.796-39.523.079-14.774.602-31.5-1.648-46.2-2.102-14.027-4.125-28.125-10.875-40.125-7.125-12.75-23.625-21.074-32.023-33.75-8.25-12.601-9.829-30.375-18.153-42-7.574-10.574-17.847-17.925-28.273-25.652-10.875-8.098-23.102-18.074-35.926-21.598-12.602-3.527-26.7-.074-40.05-.152-13.427 0-27.075-.75-40.274-.148-12.977.523-25.352.449-38.403 3.523-14.472 3.453-30.449 9.375-44.25 17.402-14.25 8.325-27 22.125-39.597 32.176-11.324 9.074-24.602 15.074-32.551 25.574-7.8 10.125-9 23.774-15.227 35.926-6.898 13.574-19.875 26.922-25.046 41.399-4.801 13.648-6.079 42.601-6.079 42.601"/></clipPath><clipPath id="e"><path d="M118.105 691.832h58.403v28.145h-58.403Zm0 0"/></clipPath><clipPath id="f"><path d="M134.102 700.309c11.472.675 12.671 1.425 13.796 2.398 1.125.977 2.176 2.25 2.625 3.828.602 1.875.602 4.95 0 6.824-.449 1.575-1.5 2.774-2.625 3.825-1.125.976-2.171 1.648-4.046 2.101-3.528.973-12.903.672-15.829.524-1.199-.075-1.5 0-2.398-.301-1.2-.375-3-1.2-4.2-2.176-1.124-1.047-2.1-2.473-2.624-3.898-.602-1.426-.75-3.149-.602-4.727.227-1.5.824-3.148 1.653-4.348.898-1.277 1.722-2.101 3.597-3.152 4.278-2.473 16.352-6.297 23.926-7.797 6.602-1.277 14.324-1.953 18.898-1.351 2.625.3 4.727 1.125 6.153 2.023 1.125.676 1.722 1.352 2.324 2.402.898 1.575 1.875 4.274 1.727 6.375-.079 2.024-1.051 4.5-2.403 6.075-1.347 1.574-3.597 2.925-5.625 3.375-2.023.449-4.574.148-6.449-.75-1.875-.825-3.824-2.625-4.8-4.5-.973-1.801-1.348-4.352-1.052-6.45.301-2.027 1.875-4.425 3.079-5.777.824-.898 1.574-1.422 2.699-1.875 1.648-.598 4.5-1.125 6.523-.672 2.028.45 4.352 2.098 5.625 3.375.903.824 1.352 1.649 1.727 2.848.523 1.652.898 4.5.375 6.527-.602 1.95-2.403 4.2-3.676 5.399-.977.824-1.5 1.199-2.926 1.574-3.222.824-10.648-.375-16.722.601-7.5 1.2-20.926 6.899-24.829 7.2-1.199.074-1.5 0-2.398-.301-1.2-.375-3-1.2-4.2-2.176-1.124-1.047-2.1-2.7-2.624-3.898-.375-.825-.528-1.5-.602-2.325-.074-.75-.148-1.5 0-2.402.227-1.2 1.051-3.297 1.653-4.348.523-.824.898-1.277 1.574-1.8 1.05-.825 2.324-1.727 4.199-2.176 3.523-.899 12.227-.524 15.898-.074 1.954.226 3.079.226 4.5 1.05 1.653 1.051 3.75 3.149 4.5 5.176.75 1.95.602 4.95 0 6.824-.449 1.575-1.5 2.774-2.625 3.825-1.125.976-2.25 1.726-4.046 2.101-2.926.75-9.153.672-12 0-1.801-.453-2.926-1.05-4.125-2.176-1.352-1.351-2.778-4.125-3.153-6-.3-1.574 0-3.226.602-4.574.523-1.426 1.273-2.777 2.55-3.828 1.575-1.2 6.376-2.398 6.376-2.398"/></clipPath><clipPath id="g"><path d="M157.645 645.703h67v47.918h-67Zm0 0"/></clipPath><clipPath id="h"><path d="M163.574 675.559c18.45-7.426 23.7-10.95 28.352-14.25 4.426-3.227 8.625-7.5 12.523-10.2 3-2.175 5.852-4.5 8.551-5.101 2.102-.45 4.273-.223 6 .527 1.727.75 3.523 2.324 4.5 4.047.898 1.652 1.2 4.277 1.05 5.852-.073 1.199-.3 1.949-.902 2.925-.824 1.348-2.546 3.375-4.273 4.2-1.648.898-4.05 1.199-5.926.824-1.875-.375-4.05-1.875-5.25-3-.824-.75-1.199-1.426-1.574-2.551-.523-1.5-.75-4.422-.45-6 .15-1.125.45-1.875 1.2-2.773.977-1.274 2.926-3.075 4.648-3.75 1.801-.676 4.426-.524 6-.149 1.125.223 1.875.598 2.778 1.348 1.199 1.05 2.926 3.074 3.449 4.875.523 1.875.45 4.277-.148 6.074-.676 1.727-1.801 2.777-3.829 4.652-4.648 4.274-19.273 13.649-26.023 18.075-4.273 2.699-6.75 4.351-10.5 6.3-4.125 2.024-9.602 4.723-13.352 5.473-2.546.527-4.796.676-6.597.078-1.5-.453-2.778-1.426-3.75-2.476-.977-1.051-1.801-2.399-2.102-3.899-.375-1.875-.222-4.8.676-6.676.977-1.8 4.95-4.425 4.95-4.425"/></clipPath><clipPath id="i"><path d="M347.246 209.578h206.527v67.137H347.246Zm0 0"/></clipPath><clipPath id="j"><path d="M429.898 267.332c-40.648 3.75-51.222 7.05-56.324 6.078-2.55-.527-4.199-1.726-5.398-3-1.051-1.05-1.574-2.476-1.875-3.75-.301-1.351-.227-2.851.074-4.203.375-1.273 1.125-2.625 2.023-3.672.903-.976 1.727-1.5 3.528-2.25 4.199-1.8 16.347-3.676 22.875-5.476 4.949-1.426 8.023-2.399 12.898-4.274 6.602-2.476 17.625-8.55 22.95-9.676 2.703-.601 4.425-.75 6.3-.152 1.801.676 3.75 2.55 4.727 4.125.824 1.277 1.05 2.703 1.125 4.125 0 1.352-.227 2.852-.977 4.125-.898 1.5-2.097 3.453-4.648 4.203-5.926 1.797-22.95-4.5-34.352-5.703-11.097-1.273-24.148-1.723-33.074-1.723-6.074 0-11.55 1.649-15.227.75a10.294 10.294 0 0 1-5.25-3c-.898-1.05-1.421-2.402-1.722-3.675-.227-1.274-.301-2.7.148-4.051.602-1.649 2.25-3.824 3.676-4.801 1.125-.824 1.727-.898 3.824-1.273 7.875-1.5 36-1.5 57.75-2.926 28.426-1.875 87.75-9.676 98.028-7.875 2.023.375 2.472.676 3.449 1.574 1.199 1.05 2.55 3.227 2.926 4.8.375 1.278.296 2.552-.227 3.825-.523 1.5-1.648 3.078-3.45 4.426-3 2.324-9 4.05-14.323 5.926-6.375 2.175-15.227 4.125-21.454 6.148-4.875 1.652-9.222 3.3-13.046 5.027-3.079 1.348-5.625 3.825-8.25 4.274-2.25.375-4.653 0-6.375-.973-1.727-.976-3.454-3-4.125-4.875-.676-1.875-.602-4.578.148-6.453.75-1.797 2.25-3.45 4.426-4.648 3.3-1.95 8.176-1.5 15.074-3.375 15.898-4.352 66.375-23.25 77.324-24.825 2.926-.375 4.051-.3 5.625.223 1.2.453 2.176 1.277 3 2.25.75.902 1.352 2.176 1.653 3.375.222 1.203.148 2.55-.153 3.75-.375 1.203-.676 1.875-1.875 3.227-3.824 4.273-18.75 13.726-29.176 20.851-11.699 7.95-29.773 18.824-37.722 24.598-3.903 2.777-6.153 5.324-8.477 6.676-1.273.824-2.097 1.351-3.449 1.5-1.574.148-4.05-.375-5.398-1.125-1.204-.602-2.028-1.5-2.625-2.7-.75-1.425-1.125-3.902-.903-5.476.153-1.348.602-2.024 1.574-3.375 2.028-2.926 9.153-9.598 12-11.926 1.426-1.125 2.176-1.723 3.375-2.172 1.204-.453 2.704-.601 3.977-.375 1.273.149 2.625.598 3.676 1.5 1.347 1.047 2.847 3.297 3.3 4.95.376 1.347.223 2.699-.078 3.972-.375 1.277-.75 2.328-1.949 3.527-2.324 2.25-9.898 5.774-13.125 6.825-1.722.523-2.699.75-4.125.523-1.722-.375-4.199-1.648-5.472-2.848-.977-1.05-1.579-2.402-1.954-3.675-.296-1.274-.449-2.774 0-4.125.528-1.727 1.801-3.301 3.454-5.102 2.625-2.848 6.523-5.848 11.472-9.45 7.95-5.847 25.875-16.273 32.7-21.073 3.226-2.325 4.953-4.274 6.976-5.399 1.426-.676 2.55-1.125 3.824-1.203 1.278-.074 2.778.152 3.977.676 1.125.527 2.324 1.426 3.148 2.402a8.59 8.59 0 0 1 1.653 3.672c.296 1.277.296 2.703-.153 3.977-.597 1.648-1.875 3.601-3.597 4.726-2.25 1.5-6.079 1.2-9.454 2.25-4.125 1.348-8.171 3.074-13.574 5.324-8.176 3.524-24.375 13.5-30.597 14.325-2.625.375-4.204 0-5.778-.899-1.574-.902-3.074-3-3.75-4.5-.523-1.277-.597-2.625-.3-3.976.374-1.649 1.203-3.301 2.925-5.024 3.153-3.226 12.528-9.375 16.875-10.203 2.403-.45 4.352 0 6 .977 1.653.976 3.227 3.148 3.824 4.726.528 1.348.676 2.774.301 4.125-.375 1.723-1.273 3.598-3.074 5.25-2.926 2.774-11.102 7.047-14.926 7.574-2.25.301-4.05-.152-5.625-1.05-1.574-.899-3.074-2.852-3.824-4.2-.45-.976-.676-1.726-.676-2.851 0-1.5.375-3.973 1.352-5.473.972-1.578 3.074-3 4.426-3.601.972-.45 1.722-.602 2.847-.602 1.5.078 3.977.602 5.477 1.652 1.426 1.051 2.773 2.926 3.3 4.649.524 1.726.297 4.199-.152 5.699-.3 1.05-.824 1.8-1.426 2.477-.523.75-1.125 1.425-2.097 1.949-1.352.75-3.977 1.426-5.551 1.426-1.05 0-1.8-.227-2.773-.676-1.352-.75-3.375-2.25-4.278-3.824-.898-1.575-1.347-3.825-1.05-5.551.226-1.801.902-3.524 2.476-5.176 2.55-2.547 10.273-5.773 13.5-6.898 1.648-.524 2.7-.825 4.05-.75 1.274 0 2.7.375 3.9 1.125 1.5.976 3.226 2.925 3.823 4.726.602 1.875.375 4.5-.222 6.149-.528 1.351-1.727 2.476-2.551 3.226-.523.598-1.5 1.348-1.727 1.125-.523-.453 4.5-9.601 4.278-9.75-.301-.152-4.2 8.625-7.426 11.625-3.3 3-8.773 6-12.148 6.524-2.25.375-4.278-.149-5.778-.899-1.273-.601-2.176-1.652-2.847-2.777-.676-1.051-1.278-2.324-1.278-3.676 0-1.723.528-4.047 1.653-5.625 1.125-1.723 2.847-2.398 5.472-3.973 5.551-3.226 18.602-9.226 27.301-12.675 7.648-3.075 17.625-6.45 22.05-7.352 1.876-.375 2.774-.523 4.052-.297 1.273.223 2.625.672 3.671 1.649 1.278 1.05 2.704 3.375 3.079 5.023.375 1.352.222 2.777-.153 3.977-.375 1.273-.676 2.023-2.023 3.449-4.801 5.176-30.153 20.027-39.824 27.226-5.852 4.274-9.829 9.524-13.653 10.95-2.324.75-4.347.675-6.148 0-1.801-.676-3.75-2.399-4.653-4.051-.898-1.723-1.199-4.274-.75-6.074.454-1.875 1.727-3.825 3.454-5.102 2.171-1.574 6.75-1.875 8.921-3 1.5-.672 2.176-1.723 3.375-2.172 1.204-.453 2.625-.676 3.977-.375 1.648.297 3.977 1.649 5.176 2.848.972.976 1.5 2.324 1.8 3.601.297 1.274.223 2.7-.078 3.973-.375 1.277-.824 2.102-1.949 3.527-2.55 3.075-11.097 11.098-15.074 12.676-2.176.824-3.977.75-5.625.223-1.574-.524-3.45-2.024-4.273-3.524-.903-1.5-1.278-3.824-.903-5.476.301-1.723.903-2.625 2.926-4.723 8.25-8.625 69.602-49.426 76.574-52.426 1.051-.375 1.125-.375 1.875-.375 1.352.075 3.977.524 5.324 1.5 1.426 1.051 2.625 3.149 3.079 4.723.296 1.277.296 2.477-.153 3.75-.523 1.5-1.05 2.777-3.3 4.5-8.848 6.453-63.297 23.477-79.126 27.977-6.523 1.8-10.796 2.773-14.171 3.074-1.875.152-2.926.375-4.352-.149-1.727-.601-4.125-2.101-5.176-3.75-1.125-1.652-1.648-4.277-1.347-6.3.222-1.95 1.5-3.977 3.074-5.551 1.949-1.95 5.25-3.074 8.324-4.5 3.676-1.649 8.102-3.45 12.3-4.649 4.2-1.199 7.95-1.125 12.973-2.402 7.352-1.95 22.875-8.324 26.625-8.773.977-.149 1.204-.075 1.954.074.972.226 2.472.676 3.449 1.574 1.199 1.05 2.625 3.078 2.926 4.8.375 1.727-.079 4.052-.977 5.552s-2.023 2.55-4.426 3.523c-6.3 2.402-22.125 1.277-37.722 2.55-25.875 2.102-82.801 8.852-102.602 9.75-8.102.376-13.5.602-17.102-.148-1.722-.3-2.699-.75-3.75-1.574-1.046-.75-2.023-1.953-2.546-3.152a8.064 8.064 0 0 1-.829-3.973c.079-1.351.454-2.777 1.125-3.902.676-1.125 1.727-2.25 2.852-2.926 1.05-.75 2.477-1.047 3.824-1.273 1.574-.301 2.477-.301 5.028-.375 7.5-.149 33.523.074 44.847.824 6.977.449 12.227.527 16.801 1.949 3.523 1.05 6 3.977 8.773 4.652 2.176.524 4.5-.601 6.301-.152 1.426.453 2.551 1.352 3.528 2.402.898.973 1.648 2.399 2.023 3.676.3 1.348.375 2.922.074 4.274-.3 1.351-.972 2.699-1.949 3.75-.977 1.199-1.95 1.875-3.898 2.925-4.5 2.473-16.727 6.598-23.551 9.149-5.25 1.875-8.7 3.152-13.95 4.726-6.828 1.95-18.902 5.399-23.55 5.551-1.95.074-2.852-.078-4.125-.601-1.278-.45-2.551-1.426-3.375-2.399-.903-1.05-1.574-2.476-1.875-3.75-.301-1.351-.227-2.851.074-4.203.375-1.273.977-2.625 2.023-3.672 1.278-1.203 2.625-1.875 5.551-2.703 8.926-2.625 47.625-8.324 56.477-6.523 3 .601 4.273 1.648 5.55 3.148 1.274 1.5 2.098 4.05 2.024 6-.074 1.953-1.05 4.426-2.398 5.852-1.352 1.425-5.704 2.773-5.704 2.773"/></clipPath><clipPath id="k"><path d="M293.465 195.176h177.683v47.492H293.465Zm0 0"/></clipPath><clipPath id="b"><path d="M171.555 215.309h466.898v466.898H171.555Zm0 0"/></clipPath><clipPath id="m"><path d="M281.445 172.422h91.54v88.945h-91.54Zm0 0"/></clipPath><clipPath id="n"><path d="M369.824 187.758c-27.449 22.199-34.5 28.726-41.023 34.8-6.074 5.852-11.852 11.325-17.551 17.477-5.773 6.297-12.602 17.25-16.95 19.95-1.948 1.199-3.675 1.273-5.027 1.273-1.046 0-1.722-.149-2.625-.676-1.199-.598-3.074-2.023-3.824-3.45-.824-1.425-1.199-3.523-.972-5.175.222-1.574 1.125-3.45 2.324-4.648 1.125-1.125 3.3-2.024 4.648-2.325.977-.226 1.653-.152 2.625.075 1.352.375 3.45 1.351 4.574 2.625 1.051 1.199 1.801 3.375 2.028 4.726.148 1.047.148 1.723-.227 2.7-.449 1.273-1.5 3.3-2.773 4.347-1.278 1.05-3.301 1.8-4.95 1.8-1.652.075-3.75-.823-4.953-1.5-.898-.523-1.347-1.198-1.875-1.874-.523-.75-.972-1.426-1.199-2.399-.3-1.351-.523-3.3.153-5.175 1.199-3.149 4.875-6.524 8.699-10.875 6.449-7.352 18.676-19.95 27.222-28.426 7.278-7.2 13.727-13.348 20.704-19.574 6.597-6 15.074-14.25 19.949-17.024 2.398-1.351 4.125-1.875 5.847-1.953 1.426 0 2.852.453 3.977 1.125 1.2.676 2.324 1.578 3 2.852.824 1.574 1.574 4.125 1.273 6-.296 1.949-3.074 5.324-3.074 5.324"/></clipPath><clipPath id="o"><path d="M181.125 448.082H639V656H181.125Zm0 0"/></clipPath><clipPath id="p"><path d="M197.102 456.035c2.324 60.149 1.421 77.25 2.324 88.723.523 7.652.972 13.05 2.699 19.05 1.648 5.774 4.05 10.876 7.273 16.126 3.602 5.851 8.625 11.925 13.579 17.023 4.796 5.027 10.347 9.977 15.75 13.578 4.722 3.149 9.597 5.625 14.625 7.422 4.648 1.652 9.972 2.777 14.324 3.152 3.676.301 5.472.075 10.125-.527 10.273-1.348 32.55-6.598 49.347-10.5 17.926-4.125 42.528-14.398 54.977-13.723 6.602.375 11.773 2.325 14.852 5.551 2.699 2.922 1.722 8.7 3.671 11.848 1.727 2.777 4.125 4.8 6.903 6.449 3.074 1.8 7.125 2.703 11.023 3.527 4.125.973 9 1.801 13.125 1.801 3.75 0 7.2-.527 10.727-1.426 3.75-.976 8.097-4.125 11.25-4.277 2.324-.148 4.5.453 6.074 1.352 1.273.75 2.176 1.8 2.773 3.074.75 1.652 1.125 4.426.829 6.152-.227 1.422-.977 2.7-1.875 3.75-.903.973-3.375 2.473-3.375 2.399-.079-.075 4.046-4.95 8.921-7.5 12.227-6.375 50.852-13.95 72.079-19.426 16.796-4.348 36.296-9.75 45-11.024 3.523-.527 5.472-.75 7.421-.375 1.426.301 2.403.825 3.375 1.723 1.125 1.125 2.329 3.375 2.704 4.953.222 1.348 0 2.625-.454 3.824-.449 1.125-.671 1.801-2.171 3.149-5.625 5.25-39.454 22.5-50.403 29.476-5.472 3.524-9.148 5.848-12.074 8.399-1.95 1.652-2.852 3.676-4.352 4.652-1.125.75-2.25 1.274-3.523 1.348-1.574.074-4.05-.524-5.398-1.348-1.125-.676-1.954-1.652-2.477-2.851-.676-1.426-1.05-3.825-.676-5.551.45-1.649 1.352-3 3.227-4.5 3.523-3 12.3-5.098 19.5-9.074 9.75-5.325 22.426-14.102 33.148-21.227 10.352-6.898 20.551-13.723 30.153-20.922 9.148-6.902 20.546-19.125 26.25-21.3 2.25-.903 3.824-.676 5.324-.301 1.199.3 2.25.898 3.074 1.875 1.05 1.125 2.102 3.148 2.176 4.8.148 1.723-.903 4.051-1.574 5.098-.375.676-.528 1.05-1.278 1.277-1.875.598-6.972-2.851-11.398-2.324-6.977.672-18.903 7.797-25.5 11.25-4.5 2.25-8.102 5.25-10.801 6.297-1.5.676-2.398 1.05-3.75.977-1.574-.075-3.898-.825-5.25-2.024-1.352-1.125-2.398-3.226-2.625-4.953-.227-1.723.375-3.672 1.352-5.473 1.125-2.25 3.449-5.324 5.472-6.675 1.574-.977 3.375-1.426 4.95-1.274 1.652.074 3.527.824 4.8 1.95 1.2 1.05 2.176 3.074 2.625 4.425.227.899.301 1.574.074 2.547-.222 1.352-1.273 3.602-2.171 4.652-.602.75-1.204 1.2-2.102 1.575-1.273.523-3.676.898-5.102.75-.972-.075-1.648-.375-2.398-.825-.75-.375-1.5-.824-2.102-1.574-.824-1.125-1.949-3.078-2.097-4.726-.153-1.575.3-3.602 1.125-4.95.824-1.425 2.472-2.699 3.972-3.3 1.5-.602 3.75-.524 5.102-.227.977.152 1.574.453 2.398 1.05 1.051.903 2.477 2.852 3.079 4.126.375.902.449 1.652.375 2.625-.153 1.351-.676 3.226-1.653 4.8-1.347 2.176-4.199 5.399-6.074 6.524-1.273.75-2.477.977-3.75.977-1.2 0-2.55-.227-3.676-.899-1.347-.828-3.074-2.777-3.75-4.203-.523-1.2-.597-2.547-.449-3.824.148-1.2.45-2.399 1.352-3.524 1.199-1.574 3.222-2.625 6.074-4.277 5.472-3.074 17.55-10.047 25.347-11.7 6.153-1.273 13.801 1.126 17.25.376 1.579-.301 2.176-1.2 3.301-1.426 1.2-.223 2.403-.223 3.602.227 1.426.523 3.375 2.023 4.199 3.3.75.973.977 2.25 1.05 3.375.075 1.2-.152 2.551-.6 3.598-.524 1.05-.973 1.5-2.25 2.777-3.825 3.899-16.65 13.801-25.65 20.551-9.6 7.2-19.948 14.25-30.448 21.297-10.801 7.352-23.329 16.125-33.454 21.828-7.949 4.422-17.546 9.672-21.898 10.348-1.727.226-2.625-.074-3.75-.45-1.125-.449-2.25-1.124-3.074-2.175-.977-1.274-1.95-3.45-1.95-5.25 0-1.723.899-3.524 2.024-5.176 1.352-1.95 3.074-3.223 6-5.473 6.523-5.027 22.352-14.699 33.3-21.3 10.348-6.301 26.4-16.274 30.524-17.625.977-.375 1.125-.375 1.95-.301 1.277.152 3.902.824 5.25 1.949 1.351 1.203 2.328 3.375 2.703 4.953.222 1.348.074 2.625-.454 3.824-.671 1.5-2.171 3.375-3.671 4.274-1.579.824-2.852.152-5.551.676-7.727 1.5-27.676 6.824-44.403 11.324-22.046 5.926-57.972 21.152-76.046 21.75-9.903.3-19.727-.899-23.25-5.024-2.625-3.074-2.176-9.601-.829-13.199 1.352-3.453 5.477-7.05 8.25-8.176 2.102-.902 4.5-.601 6.227-.074 1.352.375 2.55 1.274 3.45 2.324.902.973 1.726 2.176 2.027 3.676.296 1.723 0 4.5-.676 6.149-.602 1.273-1.278 2.101-2.778 3.148-2.921 1.953-10.421 4.125-15.597 5.176-4.95 1.05-9.676 1.5-14.7 1.351-5.402-.152-11.25-.976-16.652-2.324-5.398-1.426-11.55-3.375-15.824-6-3.676-2.25-6.898-4.578-8.852-8.101-2.171-3.899 1.352-11.926-2.773-14.625-10.648-6.899-79.95 19.949-96.375 22.949-5.55 1.05-7.352 1.351-11.25 1.574-4.273.227-8.7.227-13.5-.45-5.477-.75-11.852-2.323-17.55-4.573a82.476 82.476 0 0 1-17.325-9.301c-6.148-4.274-12.3-9.75-17.7-15.524-5.624-6-11.323-13.05-15.374-19.949a84.734 84.734 0 0 1-8.477-19.8c-1.875-6.825-2.324-12.825-3-21.153-.898-11.7-.148-28.125-.676-42.672-.523-15.3-4.273-39.601-2.398-47.027.602-2.473 1.5-3.598 2.773-4.649 1.352-1.05 3.528-1.726 5.25-1.652 1.653.152 3.75 1.05 4.954 2.25 1.199 1.203 2.25 4.953 2.25 4.953"/></clipPath><clipPath id="q"><path d="M605.43 468.266h57.093v89.332H605.43Zm0 0"/></clipPath><clipPath id="r"><path d="M605.477 548.059c4.199-44.774 4.273-45.45 5.097-46.575 1.051-1.425 3.301-3.074 4.95-3.601 1.351-.45 2.777-.375 4.124-.074 1.278.226 2.625.824 3.676 1.8 1.2 1.2 2.176 2.625 2.926 5.325 1.727 6.074 1.727 26.55 1.125 32.175-.148 2.098-.227 2.926-.977 4.2-.898 1.574-3.074 3.449-4.722 4.199-1.352.601-2.852.676-4.2.527a8.908 8.908 0 0 1-4.05-1.5c-1.125-.75-2.176-1.953-2.852-3.152-.597-1.2-1.347-2.625-1.05-4.125.601-2.551 4.8-5.024 7.5-8.774 4.05-5.777 8.925-14.777 13.425-23.027 5.028-9.297 11.403-24.598 15-30.375 1.5-2.398 2.176-3.824 3.824-4.95 1.5-1.05 3.75-1.722 5.625-1.573 1.801.148 3.977 1.199 5.25 2.55 1.278 1.274 2.102 3.676 2.25 5.325.153 1.425-.148 1.875-.824 3.898-2.847 8.852-25.199 58.652-30.597 68.852-1.653 3.074-2.176 4.5-3.602 5.773-1.05.902-2.102 1.352-3.45 1.578-1.573.223-4.05-.226-5.476-.976-1.199-.602-2.097-1.575-2.699-2.625-.676-1.051-1.125-2.325-1.2-3.602-.073-1.2.15-1.875.677-3.672 1.5-5.777 9-28.953 12.375-34.726 1.273-2.25 2.324-3.301 3.523-4.125.824-.602 1.5-.825 2.477-.977 1.421-.223 3.824-.148 5.324.602 1.574.675 3.148 2.476 3.898 3.675.528.899.75 1.575.903 2.551.074 1.5-.153 3.824-.903 5.324-.824 1.5-2.398 3-3.898 3.676-1.574.672-3.903.75-5.324.598-1.051-.149-1.727-.45-2.551-1.051-1.2-.824-2.852-2.547-3.45-4.125-.601-1.574-.75-3.672-.3-5.324.449-1.649 1.648-3.375 3-4.426 1.426-1.047 3.449-1.723 5.097-1.723 1.727 0 3.75.75 5.102 1.723 1.352 1.05 2.477 3.078 3 4.5.375.902.45 1.277.3 2.703-.675 5.324-10.277 31.348-14.1 37.348-1.427 2.25-2.552 3.3-3.9 4.05-1.198.602-2.55.75-3.75.75-1.198-.074-2.55-.449-3.6-1.124-1.052-.602-2.098-1.426-2.7-2.625-.824-1.426-1.426-2.7-1.125-5.477 1.2-10.648 25.727-65.098 32.102-74.25 1.722-2.473 2.773-3.297 4.273-4.047a6.243 6.243 0 0 1 3.898-.601c1.653.226 3.977 1.351 5.25 2.55a6.395 6.395 0 0 1 1.954 3.375c.375 1.649.222 3.223-.528 5.848-1.875 6.676-10.426 23.477-16.574 33.375-5.398 8.777-14.625 18.078-17.625 23.402-1.352 2.551-1.05 4.5-2.176 6-.898 1.125-2.25 1.95-3.523 2.399-1.278.527-2.852.676-4.2.527-1.425-.152-2.851-.527-4.05-1.5-1.426-1.05-2.7-2.476-3.602-5.176-2.023-6.226-1.5-28.351-.597-34.05.296-1.95.523-2.7 1.347-3.825 1.051-1.425 3.301-3.074 4.95-3.601 1.351-.45 2.777-.375 4.124-.074 1.278.226 2.625.898 3.676 1.8.977.825 1.875 2.098 2.403 3.301.449 1.2.523 2.098.597 4.047.074 4.727-2.023 17.25-2.398 24.75-.301 6.152.676 12.75-.153 16.953-.523 2.547-1.125 4.5-2.472 6-1.426 1.422-4.051 2.547-5.852 2.774-1.5.226-3.074-.075-4.347-.676-1.352-.524-2.625-1.348-3.528-2.551-1.125-1.5-2.097-6.148-2.097-6.148"/></clipPath><clipPath id="s"><path d="M587.527 346.688H627v133.847h-39.473Zm0 0"/></clipPath><clipPath id="t"><path d="M607.125 470.883c3.3-24.375 4.05-32.774 4.05-40.801-.073-8.324-.823-17.324-2.027-25.348-1.046-7.425-2.546-14.851-4.5-21.074-1.722-5.402-3.75-10.351-6.148-14.55-2.102-3.75-5.773-7.278-7.05-9.825-.75-1.426-1.274-2.25-1.348-3.601 0-1.649.449-4.051 1.5-5.477 1.046-1.422 3.148-2.7 4.722-3.148 1.278-.375 2.551-.375 3.824.074 1.5.527 3.375.976 4.579 3.3 4.421 8.852-3.75 64.2-1.579 79.126.903 6.074 3.528 9.601 4.051 12.601.301 1.649.528 2.547.227 3.824-.45 1.575-1.801 3.75-3 4.875-1.051.825-2.176 1.348-3.528 1.5-1.648.223-4.046-.152-5.546-1.05-1.579-.899-2.926-2.25-3.528-4.5-1.273-4.727 1.727-19.2 3.227-24.149.676-2.328 1.125-3.676 2.324-4.953 1.2-1.2 3.375-2.172 4.8-2.473 1.052-.3 1.802-.226 2.774 0 1.426.375 3.75 1.649 4.801 2.625.824.676 1.2 1.274 1.574 2.325.45 1.351.75 3.976.528 5.398-.153 1.05-.454 1.727-1.051 2.55-.903 1.2-2.625 2.927-4.2 3.528-1.652.598-3.828.672-5.476.223-1.648-.45-3.45-1.723-4.5-3.074-.977-1.426-1.574-3.75-1.648-5.25-.079-1.051 0-1.727.449-2.7.597-1.351 1.949-3.375 3.375-4.351 1.426-.899 3.824-1.348 5.25-1.348 1.05-.078 1.8.149 2.699.598 1.352.676 3.227 2.101 4.125 3.601.898 1.426 1.2 3 1.125 5.325-.148 4.125-4.125 13.199-4.8 17.476-.45 2.399.226 4.125-.376 5.7-.523 1.199-1.426 2.25-2.398 3-.977.75-2.324 1.273-3.528 1.5-1.199.222-2.546.222-3.824-.227-1.5-.598-3.3-1.95-4.426-3.524-1.421-2.027-2.171-5.25-2.847-8.25-.824-3.226-1.278-5.851-1.574-10.652-.75-9.898-.977-32.473-.153-45.375.676-9.598 3.602-19.723 3.375-25.047-.148-2.55-1.5-3.828-1.273-5.55.222-1.727 1.574-3.825 2.699-4.95.977-.902 2.102-1.5 3.45-1.726 1.573-.227 3.976 0 5.624.824 1.5.676 2.477 1.875 3.824 3.601 2.102 2.7 4.5 7.5 6.528 11.848 2.472 5.102 5.023 10.875 6.898 17.027 2.25 7.051 3.903 15 5.176 23.024 1.426 8.699 2.324 18.527 2.55 27.527.223 8.473-.3 17.172-.976 24.899-.523 6.824-.597 15.226-2.398 19.273-1.051 2.25-2.403 3.602-4.051 4.5-1.648.828-4.2 1.125-6 .676-1.8-.45-3.898-1.95-4.95-3.524-1.05-1.5-1.425-5.851-1.425-5.851"/></clipPath><clipPath id="u"><path d="M97.293 53.54h176.883v475.37H97.293Zm0 0"/></clipPath><clipPath id="v"><path d="M172.293 53.54h26.883c41.422 0 75 33.577 75 75v325.25c0 41.42-33.578 75-75 75h-26.883c-41.422 0-75-33.58-75-75V128.54c0-41.423 33.578-75 75-75Zm0 0"/></clipPath></defs><g clip-path="url(#a)"><path fill="#9daaf2" d="M405 141.047h-.41c-169.723 0-307.297 137.574-307.297 307.293 0 58.613 16.41 113.398 44.894 160.008l-.761-1.348-43.399 130.172a14.56 14.56 0 0 0-.75 4.633c0 8.086 6.567 14.652 14.653 14.652h.074c1.64 0 3.21-.277 4.66-.793l-.102.031 130.172-43.37c45.293 27.722 100.121 44.132 158.793 44.132 169.938 0 307.703-137.766 307.703-307.707S575.465 141.047 405.527 141.047h-.574Zm0 586.105c-55.14-.047-106.512-16.175-149.68-43.945l1.102.66c-2.215-1.422-4.91-2.258-7.813-2.258h-.101c-1.64 0-3.207.282-4.66.793l.105-.03-108.84 36.253 36.278-108.695c.484-1.39.761-3.004.761-4.672 0-2.903-.836-5.598-2.3-7.871l.03.058c-26.945-42.082-42.948-93.41-42.948-148.488 0-153.648 124.55-278.195 278.195-278.195 153.648 0 278.195 124.547 278.195 278.195S558.777 727.152 405.13 727.152h-.145Zm0 0"/></g><path fill="#9daaf2" d="M405.004 301.906c-80.973 0-146.852 65.875-146.852 146.852 0 80.972 65.88 146.851 146.852 146.851 80.976 0 146.851-65.879 146.851-146.851 0-80.977-65.875-146.852-146.851-146.852Zm0 364.739c-29.399 0-57.938-5.766-84.824-17.141-25.95-10.973-49.246-26.68-69.246-46.676-20-20-35.704-43.297-46.68-69.25-11.371-26.883-17.137-55.422-17.137-84.82 0-29.399 5.766-57.938 17.137-84.824 10.976-25.95 26.68-49.247 46.68-69.247s43.296-35.703 69.246-46.68c26.886-11.37 55.425-17.136 84.824-17.136 29.398 0 57.937 5.766 84.82 17.137 25.953 10.976 49.25 26.68 69.25 46.68 19.996 20 35.703 43.296 46.68 69.246 11.371 26.886 17.137 55.425 17.137 84.824 0 29.398-5.766 57.937-17.137 84.82-10.977 25.953-26.684 49.25-46.68 69.25-20 19.996-43.297 35.703-69.25 46.676-26.883 11.375-55.422 17.14-84.82 17.14"/><g clip-path="url(#b)"><path fill="#9daaf2" d="M405.004 317.465c-72.395 0-131.29 58.898-131.29 131.293 0 72.39 58.895 131.293 131.29 131.293 72.394 0 131.293-58.903 131.293-131.293 0-72.395-58.899-131.293-131.293-131.293Zm0 293.707c-89.555 0-162.414-72.863-162.414-162.414 0-89.555 72.86-162.414 162.414-162.414 89.555 0 162.414 72.86 162.414 162.414 0 89.55-72.86 162.414-162.414 162.414Zm0-364.742c-27.305 0-53.805 5.355-78.762 15.91-24.094 10.191-45.73 24.773-64.305 43.351-18.574 18.575-33.16 40.211-43.351 64.305-10.555 24.957-15.906 51.457-15.906 78.762s5.351 53.805 15.906 78.762c10.191 24.093 24.777 45.73 43.351 64.304 18.575 18.574 40.211 33.16 64.305 43.352 24.957 10.554 51.457 15.906 78.762 15.906s53.805-5.352 78.762-15.906c24.093-10.192 45.73-24.778 64.304-43.352 18.575-18.574 33.16-40.21 43.352-64.304 10.555-24.957 15.91-51.457 15.91-78.762s-5.355-53.805-15.91-78.762c-10.192-24.094-24.777-45.73-43.352-64.305-18.574-18.578-40.21-33.16-64.304-43.351-24.957-10.555-51.457-15.91-78.762-15.91Zm0 435.777c-31.492 0-62.07-6.18-90.883-18.367-27.805-11.758-52.766-28.586-74.191-50.008-21.422-21.426-38.246-46.383-50.008-74.191-12.188-28.813-18.367-59.391-18.367-90.883 0-31.492 6.18-62.07 18.367-90.887 11.758-27.805 28.586-52.766 50.008-74.187 21.422-21.422 46.382-38.247 74.191-50.012 28.813-12.184 59.39-18.363 90.883-18.363 31.492 0 62.07 6.18 90.887 18.363 27.804 11.766 52.761 28.59 74.183 50.012 21.426 21.421 38.254 46.386 50.012 74.187 12.187 28.813 18.367 59.39 18.367 90.887 0 31.492-6.18 62.07-18.367 90.883-11.758 27.804-28.586 52.765-50.008 74.191-21.426 21.422-46.387 38.25-74.187 50.008-28.817 12.187-59.395 18.367-90.887 18.367"/></g><g clip-path="url(#c)"><g clip-path="url(#d)"><path fill="#9daaf2" d="M108.602 158.508H693.75V745.16H108.602Zm0 0"/></g></g><g clip-path="url(#e)"><g clip-path="url(#f)"><path fill="#9daaf2" d="M115.2 689.059h64.347v33.824h-64.348Zm0 0"/></g></g><g clip-path="url(#g)"><g clip-path="url(#h)"><path fill="#9daaf2" d="M154.95 643.008h72.597v53.101h-72.598Zm0 0"/></g></g><g clip-path="url(#i)"><g clip-path="url(#j)"><path fill="#9daaf2" d="M344.398 206.734h211.934v72.825H344.398Zm0 0"/></g></g><g clip-path="url(#k)"><g clip-path="url(#l)"><path fill="#9daaf2" d="M290.55 192.258h183.512v53.324H290.552Zm0 0"/></g></g><g clip-path="url(#m)"><g clip-path="url(#n)"><path fill="#9daaf2" d="M278.852 169.457h97.097v94.875h-97.097Zm0 0"/></g></g><g clip-path="url(#o)"><g clip-path="url(#p)"><path fill="#9daaf2" d="M178.875 445.832H642V658.66H178.875Zm0 0"/></g></g><g clip-path="url(#q)"><g clip-path="url(#r)"><path fill="#9daaf2" d="M602.477 465.559h63v94.992h-63Zm0 0"/></g></g><g clip-path="url(#s)"><g clip-path="url(#t)"><path fill="#9daaf2" d="M585.074 344.059h44.852v139.28h-44.852Zm0 0"/></g></g><g clip-path="url(#u)"><g clip-path="url(#v)"><path fill="#9daaf2" d="M97.293 53.54h176.883v475.37H97.293Zm0 0"/></g></g></svg>