<svg xmlns="http://www.w3.org/2000/svg" width="400" viewBox="0 0 300 150" height="200" version="1.0"><defs><clipPath id="l"><path d="M82.52 52.145c-3.528.14-5.59.378-6.98.546-1.08.133-1.79.207-2.888.41-1.476.274-3.902.84-5.18 1.188-.761.203-1.187.324-1.804.555-.691.265-1.621.906-2.125.957a1.079 1.079 0 0 1-.64-.133.806.806 0 0 1-.301-.316.86.86 0 0 1-.122-.426.97.97 0 0 1 .211-.614c.434-.539 2.516-1.777 3.18-1.937.266-.063.45 0 .602.043.113.047.187.09.265.168.106.125.258.348.293.531.035.188-.02.453-.082.602a.563.563 0 0 1-.176.25c-.125.105-.355.238-.55.265a.983.983 0 0 1-.59-.117 1.018 1.018 0 0 1-.41-.449 1.084 1.084 0 0 1-.043-.602c.043-.187.203-.398.328-.515a.556.556 0 0 1 .265-.149c.16-.047.45-.054.61-.02a.625.625 0 0 1 .277.141c.121.11.29.313.352.497.054.18.027.445-.016.601a.569.569 0 0 1-.152.27c-.203.218-.762.53-1.223.812-.547.328-1.45.895-1.867 1.035a.88.88 0 0 1-.434.07.799.799 0 0 1-.418-.14 1.175 1.175 0 0 1-.386-.523.989.989 0 0 1 .062-.645c.086-.188.227-.3.469-.453.433-.281 1.426-.61 2.113-.848a24.505 24.505 0 0 1 1.899-.558c1.316-.348 3.39-.895 5.347-1.258 2.348-.426 5.985-.852 7.793-1.02.973-.097 1.77-.168 2.23-.133.212.008.321.028.454.09a.818.818 0 0 1 .351.282c.11.168.215.445.196.656a1.03 1.03 0 0 1-.293.613c-.149.149-.617.274-.617.274"/></clipPath><clipPath id="a"><path d="M39.309 43.832h72.699v72.7h-72.7Zm0 0"/></clipPath><clipPath id="c"><path d="M40.926 46.188h68.539v68.707h-68.54Zm0 0"/></clipPath><clipPath id="d"><path d="M40.996 77.215c1.746-6.156 2.879-7.492 3.586-9.008.707-1.516 1.14-3.223 1.824-4.727.649-1.425 1.117-2.808 2.117-4.066 1.168-1.469 3.243-2.797 4.727-4.004a84.917 84.917 0 0 1 3.633-2.805c1.21-.894 2.418-1.824 3.699-2.578 1.285-.754 2.598-1.46 3.996-1.965 1.418-.503 2.957-.769 4.453-1.07 1.496-.293 2.992-.586 4.535-.71 1.586-.126 3.25-.016 4.825-.016 1.543-.012 2.906-.145 4.535-.02 1.957.16 4.605.32 6.402 1.055 1.531.629 2.649 1.761 3.852 2.734 1.168.95 2.187 2.004 3.277 3.031 1.09 1.028 2.293 1.922 3.258 3.16 1.062 1.356 1.746 3.223 2.738 4.739.973 1.504 2.238 2.781 3.152 4.34a29.336 29.336 0 0 1 2.38 5.187c.515 1.531.824 3.012 1.027 4.524.203 1.472.133 2.941.195 4.437.07 1.524.223 2.984.203 4.625-.008 1.848.098 4.106-.344 5.906-.398 1.618-1.105 3.098-2.011 4.434-.918 1.348-2.692 2.773-3.47 3.605-.41.434-.71.524-.92 1-.337.77.222 2.293-.274 3.438-.676 1.531-2.934 3.902-4.235 4.586-.777.406-1.383.008-2.215.308-1.246.446-2.902 1.895-4.363 2.649-1.375.707-2.71 1.23-4.117 1.77-1.453.558-2.969 1.027-4.48 1.515-1.551.504-3.153 1.203-4.731 1.453-1.496.238-2.977.106-4.488.063-1.551-.043-3.102-.106-4.696-.336-1.699-.258-3.507-.496-5.18-1.172-1.804-.727-4.116-2.008-5.25-3.14-.769-.782-.726-2.278-1.452-2.446-.957-.223-2.524 2.082-4.125 2.71-1.836.727-4.739 1.763-6.387 1.099-1.55-.63-3.242-2.907-3.375-4.625-.14-1.938 2.781-5.93 3.36-6.48.12-.126.273-.08.288-.142.02-.054-.086-.18-.097-.187 0-.008-.094-.426-.149-.637-.054-.21-.152-.629-.152-.636v-.657c0-.21 0-.648.012-.656 0-.008.113-.46.156-.629.027-.113.097-.21.074-.281-.035-.082-.195-.09-.328-.18a4.57 4.57 0 0 1-.797-.726 4.674 4.674 0 0 1-.605-.903c-.157-.316-.371-1.02-.371-1.02s-.329-1.679-.645-2.698c-.445-1.383-1.418-3.188-1.914-4.782-.469-1.504-.86-2.992-1.043-4.508-.188-1.503-.09-4.558-.09-4.558m9.598 3.055c1.558 5.78 1.976 7.453 2.277 8.757.23 1.016.477 2.008.594 2.707.07.446.113.871.113 1.082 0 .09-.07.125-.027.196.195.308 2.445.511 3.668 1.168 1.496.804 3.136 2.328 4.48 3.613 1.258 1.215 2.035 2.887 3.383 3.86 1.348.964 3.117 1.374 4.695 1.956 1.559.579 3.188 1.559 4.7 1.516 1.445-.035 2.773-1.125 4.207-1.602 1.453-.488 3.039-.734 4.464-1.277 1.399-.539 3.426-1.523 4.047-1.965.211-.16.274-.258.38-.398.097-.14.222-.461.23-.469 0-.008.285-.328.425-.496.141-.168.415-.496.415-.504.011 0 .363-.25.53-.383.18-.125.34-.21.524-.37.25-.224.496-.442.817-.852.636-.805 1.53-3.204 2.46-3.88.637-.449 1.434-.14 2.063-.503.727-.399 1.426-1.106 1.977-1.957.699-1.09 1.28-2.762 1.586-4.23.296-1.497.203-3.048.21-4.669.008-1.746.07-3.718-.195-5.453-.25-1.656-.488-3.324-1.285-4.738-.84-1.508-2.789-2.488-3.781-3.984-.973-1.489-1.16-3.59-2.14-4.961-.895-1.25-2.11-2.118-3.34-3.028-1.286-.957-2.727-2.136-4.243-2.55-1.488-.419-3.152-.008-4.726-.02-1.586 0-3.2-.086-4.758-.016-1.531.063-2.992.051-4.531.414-1.711.41-3.598 1.11-5.227 2.055-1.684.984-3.188 2.613-4.676 3.8-1.336 1.071-2.902 1.782-3.844 3.02-.918 1.196-1.062 2.805-1.796 4.243-.813 1.601-2.348 3.18-2.958 4.886-.566 1.614-.718 5.032-.718 5.032"/></clipPath><clipPath id="e"><path d="M41.766 108.863h6.894v3.32h-6.894Zm0 0"/></clipPath><clipPath id="f"><path d="M43.652 109.863c1.356.078 1.496.168 1.63.282a.953.953 0 0 1 .308.453c.074.222.074.586 0 .804-.05.188-.176.328-.309.453a1.023 1.023 0 0 1-.476.247c-.418.117-1.524.082-1.871.062-.141-.008-.176 0-.282-.035a1.591 1.591 0 0 1-.496-.258 1.172 1.172 0 0 1-.308-.457 1.185 1.185 0 0 1-.075-.559 1.31 1.31 0 0 1 .196-.515c.11-.149.203-.246.426-.371.503-.293 1.93-.742 2.824-.922.781-.149 1.691-.23 2.234-.16.309.039.555.133.723.242a.663.663 0 0 1 .277.281c.106.188.219.504.203.754a1.273 1.273 0 0 1-.285.719 1.32 1.32 0 0 1-.664.398c-.238.051-.539.016-.762-.09a1.281 1.281 0 0 1-.566-.53 1.337 1.337 0 0 1-.121-.763c.035-.238.219-.523.363-.683a.747.747 0 0 1 .316-.219c.196-.07.532-.133.77-.082.242.055.516.25.664.398a.7.7 0 0 1 .207.336c.059.196.106.532.043.774-.07.23-.285.496-.434.637a.727.727 0 0 1-.347.183c-.38.098-1.258-.043-1.973.074-.887.141-2.472.813-2.933.848a.575.575 0 0 1-.282-.035 1.591 1.591 0 0 1-.496-.258 1.411 1.411 0 0 1-.308-.457 1.126 1.126 0 0 1-.074-.559 2.16 2.16 0 0 1 .195-.515.763.763 0 0 1 .187-.211c.125-.098.274-.203.496-.258.414-.105 1.442-.062 1.875-.008.23.028.364.028.532.125.195.121.445.371.53.61.09.23.075.586 0 .804-.05.188-.175.328-.308.453a.991.991 0 0 1-.476.247c-.348.09-1.082.082-1.418 0a.995.995 0 0 1-.489-.254 1.682 1.682 0 0 1-.37-.711.935.935 0 0 1 .07-.54c.062-.167.152-.327.3-.452.188-.141.754-.282.754-.282"/></clipPath><clipPath id="g"><path d="M46.434 103.414h7.91v5.66h-7.91Zm0 0"/></clipPath><clipPath id="h"><path d="M47.133 106.941c2.18-.879 2.797-1.293 3.347-1.683.524-.38 1.02-.887 1.477-1.203.355-.258.691-.532 1.012-.602.246-.055.504-.027.707.059.203.09.418.277.531.48.105.195.145.504.125.692a.648.648 0 0 1-.105.343c-.098.16-.301.399-.504.496-.196.106-.48.141-.703.098-.22-.043-.477-.223-.618-.355a.63.63 0 0 1-.187-.301 1.723 1.723 0 0 1-.05-.707.553.553 0 0 1 .14-.328c.113-.153.343-.364.547-.442.214-.082.523-.062.71-.02.133.028.22.071.329.16.14.126.343.364.406.575.062.223.055.508-.02.719-.078.203-.21.328-.449.547-.55.508-2.277 1.613-3.074 2.136-.504.317-.797.512-1.238.743-.489.238-1.133.558-1.578.648-.301.063-.567.078-.778.008a1.034 1.034 0 0 1-.445-.293.979.979 0 0 1-.246-.461c-.043-.219-.028-.566.078-.785.117-.215.586-.524.586-.524"/></clipPath><clipPath id="i"><path d="M68.82 51.922h24.383v7.926H68.82Zm0 0"/></clipPath><clipPath id="j"><path d="M78.578 58.742c-4.8.442-6.047.832-6.652.715a1.172 1.172 0 0 1-.637-.352.902.902 0 0 1-.219-.445 1.12 1.12 0 0 1 .008-.496c.043-.148.133-.309.238-.434.106-.113.204-.175.418-.265.493-.211 1.93-.434 2.7-.645.586-.168.949-.285 1.523-.504.777-.293 2.082-1.011 2.711-1.144.316-.07.52-.086.742-.016.211.078.442.301.559.485.097.152.125.32.133.488 0 .16-.028.336-.118.488-.105.176-.246.406-.546.496-.7.211-2.711-.531-4.055-.675a37.748 37.748 0 0 0-3.906-.204c-.72 0-1.364.196-1.797.09a1.19 1.19 0 0 1-.621-.355 1.03 1.03 0 0 1-.188-.91c.07-.196.266-.454.434-.567.132-.097.207-.11.453-.152.93-.176 4.25-.176 6.82-.344 3.356-.223 10.36-1.144 11.574-.93.239.043.29.079.407.184.14.125.3.383.343.566a.65.65 0 0 1-.027.454 1.116 1.116 0 0 1-.406.523c-.356.273-1.063.477-1.692.7-.754.257-1.797.484-2.53.726-.579.195-1.09.386-1.544.593-.363.157-.664.45-.973.504-.265.043-.55 0-.753-.117a1.164 1.164 0 0 1-.485-.574 1.158 1.158 0 0 1 .016-.762c.09-.21.265-.406.523-.55.39-.227.965-.176 1.778-.399 1.879-.512 7.84-2.742 9.132-2.93.344-.043.477-.035.664.028.141.054.254.148.352.265.09.106.16.258.195.399.028.14.02.3-.015.441a.898.898 0 0 1-.223.383c-.453.504-2.215 1.621-3.445 2.46-1.38.938-3.516 2.224-4.453 2.903-.461.328-.727.63-1 .79-.153.097-.25.16-.407.179a1.379 1.379 0 0 1-.64-.133.7.7 0 0 1-.309-.32 1.233 1.233 0 0 1-.105-.649c.015-.156.07-.238.183-.398.242-.344 1.082-1.133 1.418-1.406.168-.133.258-.203.399-.258.14-.05.32-.07.468-.043.153.02.313.07.434.176.16.125.336.39.39.586a.95.95 0 0 1-.007.468.897.897 0 0 1-.23.418c-.274.266-1.169.68-1.551.805-.204.063-.317.09-.489.063a1.672 1.672 0 0 1-.644-.336 1.064 1.064 0 0 1-.23-.434c-.036-.152-.055-.328 0-.488.062-.203.21-.39.406-.602.312-.336.773-.691 1.355-1.117.938-.691 3.055-1.922 3.86-2.488.382-.274.585-.504.824-.637.168-.082.3-.133.453-.14.152-.012.328.015.469.078.132.062.273.168.37.285a.994.994 0 0 1 .196.433.871.871 0 0 1-.016.47c-.07.194-.222.425-.425.558-.266.175-.72.14-1.118.265-.488.157-.965.364-1.601.63-.965.413-2.88 1.593-3.614 1.69-.308.044-.496 0-.683-.109-.184-.105-.363-.351-.442-.531a.768.768 0 0 1-.035-.469c.043-.195.14-.39.344-.594.375-.378 1.48-1.105 1.992-1.203a.99.99 0 0 1 .711.114c.195.117.38.375.45.558a.78.78 0 0 1 .038.489 1.206 1.206 0 0 1-.363.62c-.347.325-1.312.833-1.765.895a1.023 1.023 0 0 1-.665-.125c-.183-.105-.359-.336-.449-.496a.712.712 0 0 1-.082-.336c0-.18.047-.469.16-.648.118-.184.364-.352.524-.426a.74.74 0 0 1 .336-.07c.176.011.469.07.648.195.168.125.324.348.387.55.062.204.035.497-.016.673a.741.741 0 0 1-.168.292.683.683 0 0 1-.25.231c-.16.086-.468.168-.652.168a.693.693 0 0 1-.328-.082c-.16-.086-.399-.266-.508-.45a1.078 1.078 0 0 1-.121-.656 1.01 1.01 0 0 1 .293-.609c.3-.3 1.21-.684 1.594-.816.191-.063.316-.098.476-.09a.92.92 0 0 1 .461.133c.176.117.38.347.45.558.074.223.046.531-.024.727-.063.16-.203.293-.3.383-.063.07-.18.156-.208.132-.058-.054.531-1.136.508-1.152-.035-.02-.496 1.02-.879 1.371-.39.356-1.035.711-1.434.774a1.126 1.126 0 0 1-.683-.11.824.824 0 0 1-.336-.328.825.825 0 0 1-.148-.434c0-.203.062-.476.195-.664.133-.203.336-.28.644-.468.657-.38 2.196-1.09 3.223-1.496.902-.364 2.082-.762 2.605-.868.22-.043.329-.062.477-.035a.813.813 0 0 1 .434.196c.152.12.32.398.363.593a.828.828 0 0 1-.016.47.859.859 0 0 1-.242.405c-.566.61-3.558 2.364-4.7 3.215-.69.504-1.16 1.125-1.612 1.293-.274.09-.512.078-.727 0a1.17 1.17 0 0 1-.547-.48 1.087 1.087 0 0 1-.09-.715c.055-.223.203-.453.407-.602.257-.187.796-.222 1.054-.355.176-.078.258-.203.399-.258a.862.862 0 0 1 .468-.043c.196.035.47.195.614.336a.895.895 0 0 1 .21.426c.036.148.028.32-.007.468-.047.153-.098.25-.23.418-.301.364-1.313 1.309-1.782 1.497a.982.982 0 0 1-.664.027 1.032 1.032 0 0 1-.504-.418c-.105-.176-.152-.453-.105-.649.035-.203.105-.308.343-.554.977-1.02 8.22-5.836 9.043-6.192.121-.043.133-.043.22-.043.16.008.472.063.628.176.168.125.313.371.363.559a.773.773 0 0 1-.015.441c-.063.18-.125.328-.39.531-1.044.762-7.474 2.774-9.345 3.305-.77.211-1.273.328-1.672.363-.222.016-.343.043-.515-.02-.203-.07-.485-.245-.61-.44a1.148 1.148 0 0 1-.16-.747c.028-.226.18-.468.364-.652.23-.23.62-.363.984-.531.434-.196.957-.41 1.453-.551.496-.14.938-.133 1.531-.281.868-.23 2.7-.985 3.141-1.04.117-.015.144-.007.234.012.114.024.29.079.407.184.14.125.308.363.343.566a.98.98 0 0 1-.113.657c-.105.175-.238.3-.523.418-.746.28-2.614.148-4.454.3-3.054.246-9.777 1.043-12.117 1.149-.953.047-1.593.074-2.015-.016a.882.882 0 0 1-.446-.187.966.966 0 0 1-.3-.371.965.965 0 0 1-.098-.47c.012-.16.055-.327.133-.46.082-.133.203-.266.336-.344.125-.09.293-.125.453-.152.187-.035.293-.035.594-.043.886-.02 3.957.008 5.296.098.82.05 1.442.062 1.98.23.419.121.712.469 1.04.547.254.062.531-.07.742-.016.168.051.3.157.418.282.106.117.192.285.238.433.036.16.043.348.008.504a.958.958 0 0 1-.23.445c-.114.14-.23.223-.461.344-.531.293-1.973.781-2.781 1.082-.618.219-1.028.371-1.645.559-.809.23-2.234.636-2.781.652-.23.012-.336-.008-.489-.07-.148-.051-.3-.168-.398-.282a1.106 1.106 0 0 1-.219-.445 1.12 1.12 0 0 1 .008-.496.996.996 0 0 1 .238-.434c.153-.14.309-.218.657-.316 1.054-.312 5.62-.984 6.668-.77.351.07.504.192.656.372.148.175.246.476.238.707-.012.23-.125.523-.285.691-.16.168-.672.328-.672.328"/></clipPath><clipPath id="k"><path d="M62.469 50.223h20.98v5.605H62.47Zm0 0"/></clipPath><clipPath id="b"><path d="M48.074 52.598h55.13v55.129h-55.13Zm0 0"/></clipPath><clipPath id="m"><path d="M61.05 47.535h10.81v10.5H61.05Zm0 0"/></clipPath><clipPath id="n"><path d="M71.484 49.348c-3.242 2.62-4.074 3.39-4.843 4.105-.72.692-1.399 1.34-2.07 2.067-.684.742-1.489 2.035-2.005 2.355-.23.14-.433.148-.593.148a.536.536 0 0 1-.309-.078c-.14-.07-.363-.238-.453-.41a1.025 1.025 0 0 1-.113-.61c.027-.187.132-.405.273-.55.133-.133.39-.238.55-.273a.635.635 0 0 1 .31.007c.16.047.406.16.539.313.125.14.214.398.242.558a.58.58 0 0 1-.028.317c-.054.152-.18.39-.328.516a1.03 1.03 0 0 1-.586.21c-.195.008-.441-.097-.582-.175-.11-.063-.16-.141-.222-.223a.794.794 0 0 1-.141-.281c-.035-.16-.063-.39.016-.614.144-.37.578-.77 1.027-1.285.762-.867 2.207-2.355 3.215-3.355a64.708 64.708 0 0 1 2.445-2.309c.777-.71 1.781-1.683 2.356-2.011.28-.16.488-.223.691-.23a.95.95 0 0 1 .469.132c.14.078.273.187.351.336.098.187.188.488.153.71-.035.231-.364.63-.364.63"/></clipPath><clipPath id="o"><path d="M49.203 80.082h54.063v24.55H49.203Zm0 0"/></clipPath><clipPath id="p"><path d="M51.09 81.02c.277 7.101.168 9.12.277 10.476.059.902.113 1.543.317 2.25.195.684.48 1.285.859 1.902.426.692 1.02 1.41 1.602 2.012.566.594 1.222 1.176 1.863 1.602a7.826 7.826 0 0 0 1.726.879 7.055 7.055 0 0 0 1.692.37c.433.036.644.009 1.195-.062 1.211-.16 3.84-.777 5.824-1.238 2.118-.488 5.024-1.703 6.493-1.621.777.043 1.39.273 1.753.656.317.344.204 1.027.434 1.399.203.328.484.566.813.761.363.211.843.317 1.304.414.485.118 1.063.215 1.547.215a5.02 5.02 0 0 0 1.266-.168c.445-.117.957-.488 1.332-.508.273-.015.531.055.715.16.152.09.257.215.328.364.09.195.132.523.097.726a.914.914 0 0 1-.222.442 1.879 1.879 0 0 1-.399.285c-.008-.008.48-.586 1.055-.887 1.445-.75 6.004-1.644 8.512-2.293 1.98-.511 4.285-1.152 5.312-1.3.414-.063.645-.09.875-.043a.75.75 0 0 1 .399.203c.132.132.273.398.32.582.027.16 0 .312-.055.453-.05.133-.078.21-.258.37-.664.622-4.656 2.657-5.949 3.481-.644.418-1.078.692-1.426.993-.23.195-.336.433-.511.55a.844.844 0 0 1-.418.157 1.382 1.382 0 0 1-.637-.157.731.731 0 0 1-.293-.34 1.145 1.145 0 0 1-.078-.652c.05-.195.156-.355.379-.531.418-.356 1.453-.606 2.305-1.074 1.148-.63 2.644-1.664 3.91-2.504 1.222-.817 2.43-1.621 3.562-2.473 1.078-.812 2.426-2.258 3.098-2.516a.939.939 0 0 1 .629-.035c.14.035.265.11.363.223.125.133.25.371.258.566.015.204-.106.48-.188.602-.043.082-.062.125-.148.152-.223.07-.824-.336-1.348-.273-.824.078-2.23.918-3.011 1.328-.532.266-.954.617-1.274.742-.176.078-.285.125-.441.113-.188-.007-.461-.093-.621-.238a.97.97 0 0 1-.309-.582c-.027-.203.043-.433.156-.648.133-.266.41-.63.649-.79a.98.98 0 0 1 1.152.082c.14.126.254.364.309.524a.559.559 0 0 1 .007.3 1.408 1.408 0 0 1-.257.548c-.07.09-.141.14-.246.187a1.491 1.491 0 0 1-.602.086.617.617 0 0 1-.285-.094.738.738 0 0 1-.246-.187c-.098-.133-.23-.363-.25-.559a1.054 1.054 0 0 1 .132-.586c.098-.168.293-.316.47-.386.179-.07.445-.063.605-.028a.571.571 0 0 1 .281.125c.125.106.293.336.363.485a.61.61 0 0 1 .043.312c-.015.16-.078.38-.191.567-.16.257-.496.636-.719.77a.82.82 0 0 1-.441.112.843.843 0 0 1-.438-.105 1.458 1.458 0 0 1-.441-.496.842.842 0 0 1-.051-.45.768.768 0 0 1 .156-.417c.145-.184.383-.309.719-.504.644-.364 2.074-1.188 2.992-1.383.727-.148 1.63.133 2.04.047.183-.035.253-.145.386-.168a.79.79 0 0 1 .426.023c.168.063.398.243.496.39.09.118.117.267.125.4.008.14-.02.3-.07.425-.063.125-.118.176-.266.328-.453.461-1.969 1.63-3.031 2.426-1.133.852-2.356 1.684-3.594 2.516-1.274.867-2.754 1.902-3.95 2.574-.937.523-2.07 1.144-2.585 1.223-.203.027-.309-.008-.442-.051a.866.866 0 0 1-.363-.258c-.117-.152-.23-.406-.23-.621 0-.203.105-.414.238-.61.16-.23.363-.382.707-.648.773-.594 2.64-1.734 3.933-2.512 1.223-.746 3.118-1.922 3.606-2.082.113-.047.133-.047.227-.035.152.016.46.098.62.23.16.141.274.4.32.583a.776.776 0 0 1-.054.453 1.251 1.251 0 0 1-.433.504c-.188.097-.336.02-.657.082-.91.175-3.265.804-5.242 1.336-2.601.699-6.844 2.496-8.976 2.566-1.172.035-2.332-.105-2.746-.594-.31-.363-.258-1.132-.098-1.558.16-.407.644-.832.973-.965.25-.106.53-.07.734-.008.16.043.305.152.41.273a.924.924 0 0 1 .238.434c.035.203 0 .531-.078.727a.86.86 0 0 1-.328.37c-.348.231-1.23.489-1.844.614a7.193 7.193 0 0 1-1.734.16 9.452 9.452 0 0 1-1.965-.277c-.64-.168-1.367-.399-1.871-.707-.434-.266-.812-.54-1.043-.957-.258-.461.16-1.406-.328-1.727-1.258-.812-9.441 2.356-11.379 2.711-.656.125-.867.16-1.328.184a8.206 8.206 0 0 1-1.594-.051 9.403 9.403 0 0 1-2.074-.54 9.8 9.8 0 0 1-2.043-1.1 13.282 13.282 0 0 1-2.09-1.833c-.664-.707-1.34-1.539-1.816-2.355a10.03 10.03 0 0 1-1-2.336c-.223-.809-.278-1.516-.356-2.5-.105-1.379-.015-3.32-.078-5.035-.062-1.809-.508-4.676-.285-5.555.07-.293.176-.426.328-.547.16-.125.418-.207.621-.195.196.016.442.121.582.266.145.14.266.582.266.582"/></clipPath><clipPath id="q"><path d="M99.3 82.465h6.743V93h-6.742Zm0 0"/></clipPath><clipPath id="r"><path d="M99.309 91.887c.496-5.285.504-5.367.601-5.5.125-.168.39-.364.586-.426a.926.926 0 0 1 .484-.008.844.844 0 0 1 .434.215c.145.14.258.309.348.625.203.719.203 3.137.133 3.8-.02.247-.028.344-.118.497a1.458 1.458 0 0 1-.558.496.978.978 0 0 1-.492.062 1.058 1.058 0 0 1-.48-.18 1.096 1.096 0 0 1-.337-.37c-.07-.141-.16-.309-.125-.489.07-.3.567-.59.887-1.035.476-.68 1.055-1.742 1.586-2.719.594-1.097 1.344-2.902 1.77-3.585.175-.282.257-.45.452-.582.176-.126.442-.208.665-.188.21.016.468.14.617.3.152.153.25.434.265.63.02.168-.015.222-.097.46-.336 1.044-2.973 6.926-3.61 8.13-.195.363-.257.53-.425.68a.778.778 0 0 1-.407.187 1.278 1.278 0 0 1-.648-.114.822.822 0 0 1-.32-.312.89.89 0 0 1-.141-.426c-.008-.14.02-.219.082-.433.176-.68 1.062-3.418 1.46-4.098.15-.266.274-.39.415-.488a.577.577 0 0 1 .293-.114c.168-.027.453-.02.629.07.183.079.37.294.46.434a.77.77 0 0 1 .106.301c.008.176-.02.453-.105.629a1.094 1.094 0 0 1-.461.434c-.188.078-.461.09-.63.07a.56.56 0 0 1-.3-.125c-.14-.098-.336-.3-.406-.485a1.048 1.048 0 0 1-.035-.628c.05-.196.191-.399.351-.524a1.08 1.08 0 0 1 .602-.203c.203 0 .445.09.601.203.16.125.293.363.356.531.043.106.055.153.035.32-.078.63-1.21 3.7-1.664 4.41-.168.266-.3.388-.461.477-.14.07-.3.09-.441.09a.987.987 0 0 1-.426-.133.794.794 0 0 1-.32-.312c-.098-.168-.168-.316-.133-.645.144-1.257 3.039-7.687 3.793-8.77.203-.288.328-.386.504-.476.14-.07.293-.097.46-.07.196.027.47.16.618.3a.736.736 0 0 1 .23.4c.047.195.028.382-.062.69-.22.79-1.23 2.77-1.957 3.942-.637 1.035-1.727 2.133-2.078 2.762-.16.3-.125.531-.258.707a.955.955 0 0 1-.418.285 1.06 1.06 0 0 1-.492.062c-.172-.02-.34-.062-.48-.18-.169-.12-.317-.288-.427-.609-.238-.734-.175-3.347-.07-4.02.035-.23.063-.32.16-.452.125-.168.39-.364.586-.426a.926.926 0 0 1 .484-.008.91.91 0 0 1 .434.215c.117.094.223.246.285.387.055.144.063.25.07.48.008.555-.238 2.035-.28 2.922-.04.727.077 1.504-.02 2-.063.3-.133.531-.293.707-.168.168-.477.3-.692.328a.906.906 0 0 1-.511-.078.967.967 0 0 1-.418-.3c-.133-.18-.246-.727-.246-.727"/></clipPath><clipPath id="s"><path d="M97.188 68.11h4.66v15.804h-4.66Zm0 0"/></clipPath><clipPath id="t"><path d="M99.504 82.773c.387-2.878.476-3.867.476-4.816a22.19 22.19 0 0 0-.238-2.992c-.125-.88-.3-1.754-.531-2.488a9.17 9.17 0 0 0-.727-1.72c-.25-.44-.683-.859-.832-1.16-.09-.167-.152-.265-.16-.425 0-.195.055-.477.176-.645.125-.168.375-.32.559-.37a.693.693 0 0 1 .453.007c.175.063.398.113.539.39.523 1.044-.442 7.579-.188 9.34.11.72.418 1.133.48 1.489.036.195.063.3.028.453a1.542 1.542 0 0 1-.355.574.785.785 0 0 1-.418.176 1.125 1.125 0 0 1-.653-.121.84.84 0 0 1-.418-.531c-.148-.559.203-2.27.383-2.852.078-.277.133-.434.274-.586.14-.14.398-.258.566-.293a.586.586 0 0 1 .328 0c.168.047.442.195.567.313.097.078.14.148.187.273.05.16.086.469.063.637a.627.627 0 0 1-.126.3c-.105.141-.312.348-.496.419-.195.07-.453.078-.648.023a1.104 1.104 0 0 1-.531-.363 1.426 1.426 0 0 1-.196-.618.571.571 0 0 1 .055-.32c.07-.16.23-.398.399-.512.168-.105.453-.16.62-.16a.549.549 0 0 1 .317.07c.16.079.383.25.488.426.106.168.14.356.133.63-.016.484-.488 1.558-.566 2.062-.055.285.027.488-.043.672a.951.951 0 0 1-.285.355.996.996 0 0 1-.418.176.844.844 0 0 1-.45-.027 1.272 1.272 0 0 1-.523-.414c-.168-.239-.258-.622-.336-.973a6.02 6.02 0 0 1-.187-1.258c-.086-1.172-.114-3.836-.016-5.36.078-1.132.426-2.327.398-2.956-.02-.301-.175-.453-.152-.657.027-.203.188-.449.32-.582a.721.721 0 0 1 .407-.203c.187-.027.468 0 .664.094.18.082.293.223.453.426.246.32.531.886.77 1.398.292.606.593 1.285.816 2.012.265.832.46 1.77.61 2.719.167 1.027.272 2.187.3 3.25.027 1-.035 2.027-.113 2.941-.063.805-.07 1.797-.286 2.274-.125.265-.28.425-.476.53a1.168 1.168 0 0 1-.711.083 1.113 1.113 0 0 1-.582-.418c-.125-.176-.168-.692-.168-.692"/></clipPath><clipPath id="u"><path d="M39.309 33.5H60.19v56.125H39.31Zm0 0"/></clipPath><clipPath id="v"><path d="M48.16 33.5h3.176a8.856 8.856 0 0 1 8.855 8.855v38.403a8.856 8.856 0 0 1-8.855 8.855H48.16c-4.89 0-8.851-3.965-8.851-8.855V42.355c0-4.89 3.96-8.855 8.851-8.855Zm0 0"/></clipPath></defs><path d="m125.434 67.437.25.516.5.328.86-.078.796.078 3.813-.062.53.078 2.72-.125.468-.078 1.469-.422.484-.235 1.047-.843.719-.985.266-.515.156-.5.203-.5.063-2.14-.297-.954-.47-1.078-.343-.39-.422-.376-.265-.594.187-.5.5-1.03.313-.954.03-.89-.062-.829-.203-.937-.187-.563-.875-1.203-.39-.375-.391-.265-.375-.282-.438-.265-.5-.235-.453-.156-1.031-.25-2.72-.078-.468.11-1.031-.126-.469.094-3.187-.047-.578.266-.266.547v.578l.047.484-.016.547.016.484-.047 1.547.078 1.11-.11 5.031.079.781-.047 5.781ZM130.84 57l-.547-.313-.297-.734-.031-.906.328-.766.5-.312 2.703.187.422.203.219.422.078.797-.187.766-.391.312-.766.266Zm-.078 7.031-.469-.187-.344-.516.079-1.578.234-.453.453-.344.5.078.547-.047 2.484.235.438.187.265.469.157.656-.125.766-.297.375-.438.281-1.453.14ZM151.573 68.562l1.468-.015 1.579-.219 1.984-.656.86-.469.406-.328.5-.234.734-.625.344-.485.36-.36 1.155-1.765.407-1 .203-1 .031-.484.125-.516.031-.562.11-.766-.079-1.312-.187-1.079-.656-1.984-.5-.969-.578-.797-.75-.812-.75-.656-.61-.422-.797-.344-.39-.281-2.032-.64-1.53-.266-.704-.016-2.797.39-1.969.735-.406.297-.469.234-.89.656-1.297 1.5-.813 1.391-.406 1-.437 2.031-.078 2.141.078.547.125.484.062.5.235 1 1.203 2.39.328.313.328.422.406.375.281.344.875.687 2.047 1.047.766.266.578.047.953.219Zm1.468-4.656h-1.453l-.578-.078-.953-.406-.422-.235-.703-.578-.344-.359-.375-.5-.125-.422-.234-.484-.219-.969v-1.61l.14-.468.079-.5.203-.485.156-.468.641-.844 1.312-.89.344-.141 1.031-.266.735-.047 1.265.156.47.11.484.203.812.578 1.031 1.094.313 1 .234.5.078.469-.047 1.609-.218.969-.172.484-.297.469-.156.39-.375.422-1.266.875-.469.125-.39.188ZM179.248 67.828l.765.344.672.203.61-.281.234-.563.14-7.156-.109-.734.047-.579-.094-3.171.078-1.047-.062-.5V53.28l.11-.515-.048-.797.047-1.375-.312-.469-.578-.266-.531-.047h-.5l-.579.047-.547-.078-.484.047-.516-.016-.64.266-.266.547-.015 4.797.093.547v.5l-.093.562.015 1.047-.125.422-.375-.11-1.156-1.171-.39-.328-.923-.938-.421-.328-.297-.36-.547-.578-.828-.687-.281-.39-.5-.344-.266-.407-.453-.312-.344-.453-1.422-1.438-1.047-.719-.719-.203-.625.313-.343.5.047 3.687-.047.532.078 1.078-.047.468.016.563-.078.547.109 3.765-.047.47v.515l-.063.578v.5l.079.547-.016 1.078.047.531-.078 1 .078.531v.5l.234.579.5.28.906-.046 1.313.078.547-.078.61.047.53-.25.235-.531-.078-.532.078-6.453-.11-.547.266-.328.344.078 3.766 3.688.421.344 2.563 2.562.344.422.422.344.312.39ZM186.346 67.516l.266.5.812.28 2.907-.015.515-.265.344-.813-.016-.828.047-.547-.078-1.14.031-.5-.03-.5.046-.547.234-.547.797-.266 4.11-.031.5-.235.297-.53-.032-.579.047-1.578-.078-.5-.266-.563-.78-.25h-4l-.61-.218-.297-.469v-1.563l.078-.546-.016-.454.25-.53.766-.25.766.015.765-.047 1.297.078.516-.047 1.094.047.515-.078.5-.234.188-.532v-.5l.062-.53-.062-.5.062-.548-.062-.562-.266-.5-.469-.235-.625-.078-.953.078-.562-.03-.547.03-.5-.047-.5.047h-6.297l-.5.266-.297.5.11 3.156-.047.5-.032 3.75.078.469-.046.5v.531l-.063.578.11.813-.079 5.453.047.61ZM205.707 67.516l.281.437.5.266.954.062.53-.062.548.031.734-.031.797-.266.266-.516v-.453l-.063-.547.031-.5-.031-.484.14-1.61-.077-.546.078-1.531-.11-.47.14-.765.923-1.61.203-.5.297-.452.656-.86 3.031-5.015.313-.39.187-.47.36-.64-.078-.625-.5-.219-.532.078-1.015-.078-.563.078h-1l-.5-.047-.656.266-.547.5-.453.89-.344.5-.156.5-.61.875-.39.954-.875 1.421-.36.047-.609-.953-.234-.469-.156-.53-1.329-2.313-.28-.453-.22-.516-.578-.422-.656-.297-3.484.047-.578.172-.047.578.265.625 2.844 4.5.203.453 2.344 3.688.219.687.125.766-.016 2.078.047.531.031.5-.062.469-.016 1 .125 1.078ZM219.292 67.406l.188.578.515.266.5.031 1.094-.078.547.047h.781l.828-.266.188-.5.047-.547-.11-.562.079-1.125-.047-1.64.234-.516.531-.266h.469l.469-.031.672.203.422.453.671.922.188.5.734 1.312.344.516.25.438.313.421.515.485.672.156.938.047.578-.047.53.047h1.063l.579-.047.546-.14.11-.547-.344-.657-.844-1.297-.234-.453-.313-.468-.265-.47-.344-.421-.797-1.375-.078-.625.297-.563.734-.703.313-.453.187-.5.282-.469.187-.453.297-1 .016-2.078-.125-.5-.079-.5-.125-.531-.718-1.453-.375-.39-.235-.391-1.312-1.016-.922-.469-2.188-.453-.656-.047-.765.031-.579-.03-.53.046-.579-.047-.453.047-1.578-.047-.5.078-1.078-.109-.5.078-.578-.016-.5.235-.22.547-.077 7.375.078.765v1.328l-.047.547-.031 1 .078.578-.078 1.079.109 1.53-.047.563Zm5.375-8.844-.453-.25-.265-.546-.079-2.954.313-.53.531-.25.422-.032 1.453.031 1.203.156.828.5.266.391.172.422.062.766-.078.703-.218.531-.282.453-.328.313-.39.187-2.047.188-.532-.079ZM238.269 67.484l.344.5.5.297 5.953-.062.484.078 1.61-.078 1.593.11.5-.048.563-.265.234-.5.047-.5-.016-1.641.047-.5-.343-.531-.782-.25-3.484-.063-.5.078-.578-.047-.578.047-.563-.312-.234-.813.031-1.297.234-.546.47-.297h1.03l.532-.047 1.39.078.72-.047.546.047.484-.031.516-.282.266-.5.062-2.093-.062-.516-.235-.5-.453-.297-1.047-.031-.531.062h-.547l-.61-.062-2.077.031-.454-.281-.312-.484-.047-.813.25-.766.828-.234 5.047-.031.563-.281.28-.485-.046-1.078-.078-.5.031-.578.078-.5-.265-.531-.563-.235-2.11-.03-.468.062-.531-.079-1.157.047-.53-.047-1.016.016-.485-.047-3.437.078-.766.188-.266.578.047 1.062-.109.75.11 1.344-.048.563.047.468v4.72l-.078.546.078 1.031-.047 1.063.079.547-.063.578.031.5-.078.469.047.609v.531l.063 1.031-.032.516ZM129.918 98.422l.422.469.578.343 1-.03.578-.204.422-.547.235-.453.171-.578.25-.485.141-.437.234-.563.125-.421.829-1.938.156-.562.469-1 .343-1.032.266.094.266.438.156.562.453.89 1.5 4.063.39.86.157.5.5.562.61.313.5-.032.452-.078.625-.203.39-.484.157-.5.25-.469 1.578-4.578.235-.453.875-2.235.203-.75.234-.468.11-.454 1.687-4.468.125-.578.266-.485.5-1.61-.157-.624-.53-.125-.516-.094-.922.063-1.063-.063-.547.063-.5-.079-.562.266-.438.547-.14.5-.235.453-1.453 4.625-.094.531-.343 1.11-.188 1.11-.156.5-.266-.032-.531-1.5-.125-.531-1.14-2.97-.266-1-.203-.5-.313-1.062-.219-.437-.203-.485-.375-.515-.547-.328h-.578l-.531.265-.453.532-.86 2.609-.406.953-.937 3.047-.266.39-.11.563-.39 1-.219.031-.093-.64-1.688-5.735-.219-.453-.312-1.031-.11-.531-.203-.516-.484-.422-.5-.234-2.11-.031-.468-.11-.469.078-.562.032-.547.156-.11.61.141.702 1.094 3 .25.453 1.078 2.954.156.578.735 1.984.234.406 2.14 5.985.235.5ZM151.455 98.266l.219.546.593.235h.5l.829-.078.765.031.547.078.547-.047.594-.234.203-.531.031-.532-.078-.578.047-.469-.047-.53.047-.5-.031-.579.062-.562-.078-2.079.25-.546.531-.313h.563l.468.047h1.547l.532-.047.53.047h.5l.47.266.265.515.078 1.61-.078.5.11 1.875-.11.796.078 1.016.266.563.531.265.516-.062.797.078h1.812l.531-.281.297-.5.094-1.079v-4.25l-.094-1 .016-.53-.047-.548v-.53l.078-.548-.031-1 .062-.578-.078-2.578.125-2.188-.109-.5-.047-.5.11-.53-.063-.532-.266-.531-.812-.266-1.344-.016-.844.079h-.515l-.797.234-.219.766.063 2.875-.11.437v1.531l-.281.532-.453.265h-1.063l-.468-.062-2.547.031-.563-.234-.203-.5v-1.579l.047-.484-.078-2.61.031-.437-.328-.562-.813-.266-1.546.063-.532-.063-.5.063-.812.234-.297.453-.078.578v.5l.047.578-.078.5.14 1.578-.078.579.047.453-.11.531.11 1.594-.047.562v1.531l.078.5-.062.813.062.61-.078 1.234.047.578-.078.531.078.469-.047.531ZM170.865 98.234l.265.563.532.172 7.812.062.5-.265.297-.485v-.578l-.062-.469.093-1.609-.375-.438-1.765-.562-.297-.531.062-2.157-.109-1.046.11-1.11-.063-.797.062-.812-.062-.5.062-.531-.062-.547v-1.11l.297-.468.5-.297.578-.032.5-.28.297-.5v-1.563l.047-.469-.047-.531-.219-.516-.844-.25-3.344-.016-.578.047-1.609-.03-.5.03-1.031-.047-.578.266-.282.547v.5l-.062.453v.578l.062.531v.5l.266.5 1.594.547.343.47-.078 2.25.032.437.078.609-.032 1.078-.046.531.109 1.032-.14.515.109 1.14-.047 1.032-.266.578-1.734.547-.328.5-.047.5ZM190.064 99.203l.765.094.844-.031 2.578-.5 1.375-.735.844-.578.734-.844.532-.843.203-.485.156-.515.078-.485.031-1.625-.078-.531-.14-.5-.516-.969-.64-.828-.438-.36-1.406-.64-2.157-.531-2.656-.328-1.11-.407-.39-.203-.422-.422-.03-.718.077-.688.297-.36.438-.343.375-.156.468-.11 1.688-.046.578.203.39.312.876.922.812.266 1.75.062.469-.062.5.062.5-.328.234-.5-.203-1.016-.422-.953-.344-.422-.265-.421-.344-.391-1.687-1.156-1.454-.516-.546-.094-.47-.062-.577-.125-1.485.031-2.078.422-.469.172-.421.265-.422.157-.532.328-.375.344-.468.312-.297.438-.328.343-.188.485-.265.422-.375 1.515.03 1.766.188.75.344.922.656.86.735.687.922.562 1.5.5.953.203 2.156.156.469.079.531.03.953.391.36.313.14.687-.156.688-.422.375-.422.234-.984.282-.735.03-.78-.046-.61-.156-.39-.188-.485-.297-.39-.359-.392-.531-.53-.219-2-.047-.532.047-.531-.016-.516.235-.187.547.046.578.11.484.422 1.047.656.812.766.766.453.297 1.89.875.578.078.5.172ZM202.045 98.187l.204.547.562.22.516.046 1.562-.031.578.062h.547l.531-.297.235-.547.031-1.062-.047-.5.078-.469-.062-.578v-.562l.187-.438.719-.266.578-.078.781.078 1.375-.03 1.079-.204 1.53-.453.891-.547.422-.328.797-.75.844-1.266.234-.484.188-.469.234-1.078.047-.484.031-1.547-.468-2.063-.532-.937-.343-.453-.344-.375-.297-.39-.438-.392-.796-.53-.954-.5-.546-.11-.532-.203-.468-.11-7.875-.03-.72.25-.25.5-.062.546v1.078l-.078.484v.5l.078.547v2.688l-.047.531.047.469-.047.578.079 1.078-.11.719.078.781-.047.5v1.11l.079.5-.079 1.062.079 1.656-.141.531.11.5-.079.5Zm5.579-8.171-.5-.235-.313-.531-.047-3.656.313-.578.53-.22.657-.046 2.11.11.437.234.39.281.423.406.265.438.25 1.25-.297 1.203-.61.734-.421.297-.422.234-2.156.125ZM220.179 98.234l.343.5.5.297 5.954-.062.484.078 1.61-.078 1.593.11.5-.048.563-.265.234-.5.047-.5-.016-1.641.047-.5-.344-.531-.781-.25-3.484-.063-.5.078-.578-.047-.579.047-.562-.312-.234-.813.03-1.297.235-.546.469-.297h1.031l.531-.047 1.391.078.719-.047.547.047.484-.031.516-.282.265-.5.063-2.093-.063-.516-.234-.5-.453-.297-1.047-.031-.531.062h-.547l-.61-.062-2.078.031-.453-.281-.312-.484-.047-.813.25-.766.828-.234 5.047-.031.562-.281.282-.485-.047-1.078-.078-.5.03-.578.079-.5-.266-.531-.562-.235-2.11-.03-.468.062-.532-.079-1.156.047-.531-.047-1.016.016-.484-.047-3.438.078-.765.188-.266.578.047 1.062-.11.75.11 1.344-.047.563.047.468v4.72l-.078.546.078 1.031-.047 1.063.078.547-.062.578.031.5-.078.469.047.609v.531l.062 1.031-.031.516ZM236.277 98.156l.187.578.516.266.5.031 1.094-.078.546.047h.782l.828-.266.187-.5.047-.547-.11-.562.079-1.125-.047-1.64.234-.516.532-.266h.468l.47-.031.671.203.422.453.672.922.187.5.735 1.312.343.516.25.438.313.421.516.485.671.156.938.047.578-.047.531.047h1.063l.578-.047.547-.14.11-.547-.345-.657-.843-1.297-.235-.453-.312-.468-.266-.47-.344-.421-.796-1.375-.079-.625.297-.563.735-.703.312-.453.188-.5.281-.469.187-.453.297-1 .016-2.078-.125-.5-.078-.5-.125-.531-.719-1.453-.375-.39-.234-.391-1.313-1.016-.922-.469-2.187-.453-.656-.047-.766.031-.578-.03-.531.046-.579-.047-.453.047-1.578-.047-.5.078-1.078-.109-.5.078-.578-.016-.5.235-.219.547-.078 7.375.078.765v1.328l-.047.547-.03 1 .077.578-.078 1.079.11 1.53-.047.563Zm5.375-8.844-.453-.25-.266-.546-.078-2.954.312-.53.532-.25.421-.032 1.454.031 1.203.156.828.5.265.391.172.422.063.766-.078.703-.219.531-.281.453-.328.313-.391.187-2.047.188-.531-.079Zm0 0" fill="#fff"/><g clip-path="url(#a)"><path fill="#fff" d="M75.637 43.832h-.047c-20.04 0-36.281 16.242-36.281 36.281a36.113 36.113 0 0 0 5.3 18.89l-.093-.16-5.121 15.372a1.731 1.731 0 0 0 1.64 2.277h.008a1.6 1.6 0 0 0 .55-.094l-.011.004 15.371-5.12c5.348 3.273 11.82 5.21 18.746 5.21 20.067 0 36.332-16.265 36.332-36.332 0-20.062-16.265-36.328-36.332-36.328h-.066Zm0 69.2a32.611 32.611 0 0 1-17.672-5.188l.129.078a1.7 1.7 0 0 0-.922-.266h-.012c-.191 0-.379.031-.55.094l.011-.004-12.848 4.277 4.282-12.832c.058-.164.09-.355.09-.55 0-.344-.098-.66-.27-.93l.004.008c-3.184-4.969-5.074-11.031-5.074-17.531 0-18.145 14.707-32.848 32.847-32.848 18.141 0 32.848 14.703 32.848 32.847 0 18.141-14.707 32.844-32.848 32.844h-.015Zm0 0"/></g><path fill="#fff" d="M75.637 62.824c-9.559 0-17.336 7.778-17.336 17.336 0 9.563 7.777 17.34 17.336 17.34 9.562 0 17.34-7.777 17.34-17.34 0-9.558-7.778-17.336-17.34-17.336Zm0 43.063c-3.469 0-6.84-.68-10.016-2.024a25.591 25.591 0 0 1-8.176-5.511 25.558 25.558 0 0 1-5.508-8.176 25.538 25.538 0 0 1-2.023-10.016c0-3.469.68-6.84 2.023-10.012a25.558 25.558 0 0 1 5.508-8.175 25.591 25.591 0 0 1 8.176-5.512 25.566 25.566 0 0 1 10.016-2.023c3.472 0 6.843.68 10.015 2.023a25.506 25.506 0 0 1 8.176 5.512 25.569 25.569 0 0 1 5.512 8.175 25.533 25.533 0 0 1 2.023 10.012c0 3.473-.68 6.844-2.023 10.016a25.569 25.569 0 0 1-5.512 8.176 25.506 25.506 0 0 1-8.176 5.511 25.538 25.538 0 0 1-10.015 2.024"/><g clip-path="url(#b)"><path fill="#fff" d="M75.637 64.66c-8.547 0-15.5 6.953-15.5 15.5 0 8.55 6.953 15.504 15.5 15.504 8.55 0 15.504-6.953 15.504-15.504 0-8.547-6.954-15.5-15.504-15.5Zm0 34.68c-10.57 0-19.176-8.606-19.176-19.18 0-10.57 8.605-19.176 19.176-19.176 10.574 0 19.18 8.606 19.18 19.176 0 10.574-8.606 19.18-19.18 19.18Zm0-43.067c-3.223 0-6.352.633-9.297 1.88a23.783 23.783 0 0 0-7.594 5.117 23.87 23.87 0 0 0-5.117 7.593 23.734 23.734 0 0 0-1.879 9.297c0 3.227.633 6.356 1.879 9.3a23.87 23.87 0 0 0 5.117 7.595 23.783 23.783 0 0 0 7.594 5.117 23.734 23.734 0 0 0 9.297 1.879c3.226 0 6.355-.633 9.3-1.88a23.87 23.87 0 0 0 7.594-5.116 23.87 23.87 0 0 0 5.117-7.594 23.739 23.739 0 0 0 1.88-9.3c0-3.224-.633-6.352-1.88-9.298a23.87 23.87 0 0 0-5.117-7.593 23.87 23.87 0 0 0-7.594-5.118 23.739 23.739 0 0 0-9.3-1.879Zm0 51.454c-3.715 0-7.328-.73-10.73-2.168a27.525 27.525 0 0 1-8.759-5.907 27.478 27.478 0 0 1-5.906-8.761 27.406 27.406 0 0 1-2.168-10.73 27.461 27.461 0 0 1 8.074-19.488 27.461 27.461 0 0 1 19.489-8.075c3.718 0 7.332.73 10.734 2.168a27.504 27.504 0 0 1 8.758 5.906 27.45 27.45 0 0 1 5.902 8.758 27.354 27.354 0 0 1 2.172 10.73c0 3.719-.73 7.332-2.172 10.73a27.466 27.466 0 0 1-5.902 8.762 27.568 27.568 0 0 1-8.758 5.907 27.439 27.439 0 0 1-10.734 2.168"/></g><g clip-path="url(#c)"><g clip-path="url(#d)"><path fill="#fff" d="M40.64 45.89h69.09v69.27H40.64Zm0 0"/></g></g><g clip-path="url(#e)"><g clip-path="url(#f)"><path fill="#fff" d="M41.422 108.535h7.598v3.992h-7.598Zm0 0"/></g></g><g clip-path="url(#g)"><g clip-path="url(#h)"><path fill="#fff" d="M46.113 103.098h8.575v6.27h-8.575Zm0 0"/></g></g><g clip-path="url(#i)"><g clip-path="url(#j)"><path fill="#fff" d="M68.484 51.586h25.02v8.598h-25.02Zm0 0"/></g></g><g clip-path="url(#k)"><g clip-path="url(#l)"><path fill="#fff" d="M62.125 49.879h21.668v6.293H62.125Zm0 0"/></g></g><g clip-path="url(#m)"><g clip-path="url(#n)"><path fill="#fff" d="M60.742 47.184h11.465v11.203H60.742Zm0 0"/></g></g><g clip-path="url(#o)"><g clip-path="url(#p)"><path fill="#fff" d="M48.938 79.816h54.683v25.13H48.938Zm0 0"/></g></g><g clip-path="url(#q)"><g clip-path="url(#r)"><path fill="#fff" d="M98.953 82.145h7.438v11.218h-7.438Zm0 0"/></g></g><g clip-path="url(#s)"><g clip-path="url(#t)"><path fill="#fff" d="M96.898 67.8h5.297v16.446h-5.297Zm0 0"/></g></g><g clip-path="url(#u)"><g clip-path="url(#v)"><path fill="#fff" d="M39.309 33.5H60.19v56.125H39.31Zm0 0"/></g></g></svg>