<svg xmlns="http://www.w3.org/2000/svg" xmlns:xlink="http://www.w3.org/1999/xlink" width="400" zoomAndPan="magnify" viewBox="0 0 300 299.999988" height="400" preserveAspectRatio="xMidYMid meet" version="1.0"><defs><filter x="0%" y="0%" width="100%" height="100%" id="8e15fa61eb"><feColorMatrix values="0 0 0 0 1 0 0 0 0 1 0 0 0 0 1 0 0 0 1 0" color-interpolation-filters="sRGB"/></filter><clipPath id="537b57788b"><path d="M 33.054688 42.5 L 266.945312 42.5 L 266.945312 257.75 L 33.054688 257.75 Z M 33.054688 42.5 " clip-rule="nonzero"/></clipPath><mask id="4bfa5e211b"><g filter="url(#8e15fa61eb)"><rect x="-30" width="360" fill="#000000" y="-29.999999" height="359.999986" fill-opacity="0.25"/></g></mask><clipPath id="39da3e95bc"><path d="M 0.0546875 85 L 70 85 L 70 132 L 0.0546875 132 Z M 0.0546875 85 " clip-rule="nonzero"/></clipPath><clipPath id="23df14605e"><path d="M 0.0546875 172 L 233.945312 172 L 233.945312 215.75 L 0.0546875 215.75 Z M 0.0546875 172 " clip-rule="nonzero"/></clipPath><clipPath id="d3899fd845"><path d="M 160 69 L 233.945312 69 L 233.945312 130 L 160 130 Z M 160 69 " clip-rule="nonzero"/></clipPath><clipPath id="af0efb1e44"><path d="M 0.0546875 0.5 L 233.945312 0.5 L 233.945312 44 L 0.0546875 44 Z M 0.0546875 0.5 " clip-rule="nonzero"/></clipPath><clipPath id="c343bf6fdc"><rect x="0" width="234" y="0" height="216"/></clipPath><mask id="0a6920fb91"><g filter="url(#8e15fa61eb)"><rect x="-30" width="360" fill="#000000" y="-29.999999" height="359.999986" fill-opacity="0.75"/></g></mask><clipPath id="2505175c33"><path d="M 0.441406 0.480469 L 42.199219 0.480469 L 42.199219 32.398438 L 0.441406 32.398438 Z M 0.441406 0.480469 " clip-rule="nonzero"/></clipPath><clipPath id="5001b6cb02"><rect x="0" width="43" y="0" height="33"/></clipPath><mask id="f91e62fb4d"><g filter="url(#8e15fa61eb)"><rect x="-30" width="360" fill="#000000" y="-29.999999" height="359.999986" fill-opacity="0.5"/></g></mask><clipPath id="eee0cf81f0"><path d="M 0.199219 1 L 121.878906 1 L 121.878906 163 L 0.199219 163 Z M 0.199219 1 " clip-rule="nonzero"/></clipPath><clipPath id="fa697f0fad"><rect x="0" width="122" y="0" height="164"/></clipPath><mask id="190569d72c"><g filter="url(#8e15fa61eb)"><rect x="-30" width="360" fill="#000000" y="-29.999999" height="359.999986" fill-opacity="0.25"/></g></mask><clipPath id="8eb7e7a4af"><path d="M 0.078125 0.121094 L 123 0.121094 L 123 54 L 0.078125 54 Z M 0.078125 0.121094 " clip-rule="nonzero"/></clipPath><clipPath id="ba926e059e"><rect x="0" width="124" y="0" height="55"/></clipPath><mask id="926dbf5e20"><g filter="url(#8e15fa61eb)"><rect x="-30" width="360" fill="#000000" y="-29.999999" height="359.999986" fill-opacity="0.75"/></g></mask><clipPath id="8f25af4404"><path d="M 1 0.359375 L 26.359375 0.359375 L 26.359375 22.679688 L 1 22.679688 Z M 1 0.359375 " clip-rule="nonzero"/></clipPath><clipPath id="4aab92de48"><rect x="0" width="27" y="0" height="23"/></clipPath><mask id="c883ee4f5e"><g filter="url(#8e15fa61eb)"><rect x="-30" width="360" fill="#000000" y="-29.999999" height="359.999986" fill-opacity="0.75"/></g></mask><clipPath id="68c1aeddc8"><path d="M 0.398438 0.800781 L 6.878906 0.800781 L 6.878906 8.960938 L 0.398438 8.960938 Z M 0.398438 0.800781 " clip-rule="nonzero"/></clipPath><clipPath id="7f36962524"><rect x="0" width="7" y="0" height="9"/></clipPath><mask id="361cd6dc24"><g filter="url(#8e15fa61eb)"><rect x="-30" width="360" fill="#000000" y="-29.999999" height="359.999986" fill-opacity="0.75"/></g></mask><clipPath id="a83f3565e6"><path d="M 0.28125 0.320312 L 65.320312 0.320312 L 65.320312 43.28125 L 0.28125 43.28125 Z M 0.28125 0.320312 " clip-rule="nonzero"/></clipPath><clipPath id="d55b928eef"><rect x="0" width="66" y="0" height="44"/></clipPath><mask id="658795e39d"><g filter="url(#8e15fa61eb)"><rect x="-30" width="360" fill="#000000" y="-29.999999" height="359.999986" fill-opacity="0.5"/></g></mask><clipPath id="13be582a89"><path d="M 0.71875 1 L 16.558594 1 L 16.558594 16.960938 L 0.71875 16.960938 Z M 0.71875 1 " clip-rule="nonzero"/></clipPath><clipPath id="96b448e125"><rect x="0" width="17" y="0" height="17"/></clipPath><mask id="7ee1277439"><g filter="url(#8e15fa61eb)"><rect x="-30" width="360" fill="#000000" y="-29.999999" height="359.999986" fill-opacity="0.5"/></g></mask><clipPath id="41998c6e9d"><path d="M 0.0390625 0.519531 L 61 0.519531 L 61 61.480469 L 0.0390625 61.480469 Z M 0.0390625 0.519531 " clip-rule="nonzero"/></clipPath><clipPath id="e84f2d0f2f"><rect x="0" width="62" y="0" height="62"/></clipPath><mask id="bbf337458d"><g filter="url(#8e15fa61eb)"><rect x="-30" width="360" fill="#000000" y="-29.999999" height="359.999986" fill-opacity="0.5"/></g></mask><clipPath id="7c28278e2b"><path d="M 0.441406 0.480469 L 8.839844 0.480469 L 8.839844 23.519531 L 0.441406 23.519531 Z M 0.441406 0.480469 " clip-rule="nonzero"/></clipPath><clipPath id="b944bae41a"><rect x="0" width="9" y="0" height="24"/></clipPath><mask id="9ac901ef24"><g filter="url(#8e15fa61eb)"><rect x="-30" width="360" fill="#000000" y="-29.999999" height="359.999986" fill-opacity="0.75"/></g></mask><clipPath id="f707a9d561"><path d="M 0.28125 3 L 18 3 L 18 25.71875 L 0.28125 25.71875 Z M 0.28125 3 " clip-rule="nonzero"/></clipPath><clipPath id="6e65749c6b"><path d="M 41 0.761719 L 49.480469 0.761719 L 49.480469 12 L 41 12 Z M 41 0.761719 " clip-rule="nonzero"/></clipPath><clipPath id="a9f61f1a57"><rect x="0" width="50" y="0" height="26"/></clipPath></defs><g clip-path="url(#537b57788b)"><g mask="url(#4bfa5e211b)"><g transform="matrix(1, 0, 0, 1, 33, 42)"><g clip-path="url(#c343bf6fdc)"><g clip-path="url(#39da3e95bc)"><path fill="#445" d="M 0.0546875 107.992188 C 0.0546875 102.054688 2.949219 96.679688 7.628906 92.792969 C 12.308594 88.898438 18.777344 86.496094 25.921875 86.496094 L 60.617188 86.496094 C 63.886719 86.496094 67.023438 85.988281 69.902344 85.066406 C 64.992188 97.09375 58.222656 111.175781 53.855469 125.726562 C 51.554688 125.9375 49.332031 126.40625 47.207031 127.105469 C 44.519531 127.984375 42 129.234375 39.699219 130.792969 C 39.34375 131.03125 38.996094 131.28125 38.652344 131.53125 C 35.316406 130.226562 31.585938 129.496094 27.652344 129.496094 L 25.914062 129.496094 C 11.632812 129.496094 0.0507812 119.871094 0.0507812 107.996094 Z M 0.0546875 107.992188 " fill-opacity="1" fill-rule="nonzero"/></g><g clip-path="url(#23df14605e)"><path fill="#445" d="M 233.945312 193.992188 C 233.945312 199.929688 231.046875 205.300781 226.367188 209.191406 C 221.6875 213.082031 215.21875 215.488281 208.082031 215.488281 L 25.921875 215.488281 C 11.636719 215.488281 0.0546875 205.863281 0.0546875 193.992188 C 0.0546875 188.058594 2.949219 182.679688 7.628906 178.789062 C 12.308594 174.902344 18.777344 172.492188 25.921875 172.492188 L 27.65625 172.492188 C 28.863281 172.492188 30.050781 172.421875 31.214844 172.289062 C 33.929688 176.480469 37.648438 179.960938 42.03125 182.390625 C 44.675781 183.851562 47.570312 184.925781 50.621094 185.542969 L 50.625 185.542969 C 52.578125 185.941406 54.589844 186.148438 56.65625 186.148438 C 58.167969 186.148438 59.648438 186.039062 61.097656 185.824219 C 70.378906 198.097656 81.566406 201.429688 91.3125 200.875 C 91.324219 200.875 91.34375 200.875 91.367188 200.871094 C 91.402344 200.871094 91.441406 200.871094 91.496094 200.867188 C 94.710938 200.722656 136.320312 198.824219 158.132812 196.398438 C 180.84375 193.875 204.804688 187.726562 211.429688 172.746094 C 211.441406 172.722656 211.453125 172.699219 211.457031 172.675781 C 224.144531 174.054688 233.945312 183.074219 233.945312 193.996094 Z M 233.945312 193.992188 " fill-opacity="1" fill-rule="nonzero"/></g><g clip-path="url(#d3899fd845)"><path fill="#445" d="M 233.945312 107.992188 C 233.945312 113.933594 231.046875 119.308594 226.367188 123.195312 C 221.6875 127.089844 215.21875 129.492188 208.082031 129.492188 L 160.0625 129.492188 C 159.558594 112.296875 173.195312 90.964844 173.671875 71.03125 C 173.679688 71.023438 173.828125 70.945312 176.144531 69.765625 C 178.753906 79.34375 189.0625 86.492188 201.371094 86.492188 L 208.082031 86.492188 C 222.363281 86.492188 233.945312 96.117188 233.945312 107.992188 Z M 233.945312 107.992188 " fill-opacity="1" fill-rule="nonzero"/></g><g clip-path="url(#af0efb1e44)"><path fill="#445" d="M 0.0546875 22 C 0.0546875 16.0625 2.949219 10.6875 7.628906 6.796875 C 12.308594 2.90625 18.777344 0.503906 25.921875 0.503906 L 208.078125 0.503906 C 222.363281 0.503906 233.945312 10.125 233.945312 22 C 233.945312 27.9375 231.046875 33.308594 226.367188 37.199219 C 221.6875 41.089844 215.21875 43.5 208.082031 43.5 L 201.371094 43.5 C 201.261719 43.5 201.152344 43.5 201.039062 43.5 C 196.929688 36.175781 188.699219 30.671875 182.257812 29.574219 C 174.851562 28.3125 162.394531 28.3125 153.089844 29.574219 C 143.789062 30.839844 140.585938 39.945312 140.585938 39.945312 C 128.234375 38.488281 114.390625 39.167969 102.796875 39.273438 C 77.023438 39.511719 60.234375 39.824219 52.425781 43.054688 C 52.425781 43.054688 52.054688 43.203125 51.429688 43.5 L 25.921875 43.5 C 11.632812 43.5 0.0546875 33.875 0.0546875 22 Z M 0.0546875 22 " fill-opacity="1" fill-rule="nonzero"/></g><path fill="#445" d="M 49.457031 74.195312 C 46.941406 76.554688 43.558594 78.003906 39.835938 78.003906 C 32.074219 78.003906 25.785156 71.710938 25.785156 63.949219 C 25.785156 56.183594 32.074219 49.894531 39.835938 49.894531 C 40.613281 49.894531 41.375 49.957031 42.121094 50.082031 C 40.738281 51.539062 39.5 53.214844 38.617188 55.121094 C 35.117188 62.683594 34.6875 69.195312 34.730469 72.285156 C 34.746094 73.34375 35.609375 74.195312 36.671875 74.195312 Z M 49.457031 74.195312 " fill-opacity="1" fill-rule="nonzero"/></g></g></g></g><g mask="url(#0a6920fb91)"><g transform="matrix(1, 0, 0, 1, 67, 84)"><g clip-path="url(#5001b6cb02)"><g clip-path="url(#2505175c33)"><path fill="#445" d="M 39.910156 32.195312 L 2.667969 32.195312 C 1.609375 32.195312 0.742188 31.34375 0.726562 30.285156 C 0.6875 27.195312 1.117188 20.683594 4.617188 13.121094 C 8.328125 5.09375 18.421875 1.054688 18.421875 1.054688 C 18.429688 1.050781 18.449219 1.046875 18.476562 1.042969 C 18.496094 1.035156 18.523438 1.03125 18.554688 1.023438 C 20.320312 0.636719 38.453125 -2.828125 41.828125 18.085938 C 42.453125 21.953125 41.617188 26.726562 39.910156 32.195312 Z M 39.910156 32.195312 " fill-opacity="1" fill-rule="nonzero"/></g></g></g></g><path fill="#445" d="M 107.425781 116.898438 L 69.667969 116.898438 C 68.230469 116.898438 67.046875 115.730469 67.027344 114.296875 C 66.984375 111.050781 67.441406 104.46875 70.980469 96.824219 C 74.769531 88.640625 84.738281 84.570312 85.160156 84.402344 L 85.199219 84.386719 C 85.222656 84.378906 85.257812 84.367188 85.308594 84.359375 C 85.335938 84.351562 85.367188 84.34375 85.398438 84.335938 C 86.890625 84.007812 94.652344 82.597656 101.164062 87.027344 C 105.59375 90.039062 108.402344 95.066406 109.519531 101.972656 C 110.113281 105.660156 109.5 110.246094 107.578125 116.402344 L 107.425781 116.894531 Z M 85.636719 85.726562 C 84.871094 86.046875 75.671875 90.027344 72.253906 97.414062 C 68.835938 104.804688 68.390625 111.152344 68.433594 114.277344 C 68.441406 114.949219 68.996094 115.496094 69.671875 115.496094 L 106.394531 115.496094 C 108.101562 109.875 108.671875 105.519531 108.136719 102.199219 C 107.085938 95.6875 104.476562 90.976562 100.375 88.1875 C 94.210938 83.996094 86.554688 85.519531 85.703125 85.707031 Z M 85.636719 85.726562 " fill-opacity="1" fill-rule="nonzero"/><g mask="url(#f91e62fb4d)"><g transform="matrix(1, 0, 0, 1, 85, 80)"><g clip-path="url(#fa697f0fad)"><g clip-path="url(#eee0cf81f0)"><path fill="#445" d="M 121.667969 33.03125 C 121.164062 54.039062 106.054688 76.589844 108.261719 94.222656 C 109.082031 100.804688 111.867188 106.914062 115.296875 112.191406 L 64.875 115.558594 C 64.875 115.558594 55.675781 115.269531 52.289062 122.839844 C 48.894531 130.40625 49.292969 137.421875 49.292969 137.421875 L 72.386719 135.707031 C 71.632812 138.054688 70.894531 139.628906 70.894531 139.628906 C 70.894531 139.628906 68.527344 146.960938 61.195312 154.292969 C 57.925781 157.566406 49.476562 162.246094 39.488281 162.863281 C 39.4375 162.867188 39.394531 162.871094 39.363281 162.871094 C 39.335938 162.875 39.316406 162.875 39.304688 162.875 C 29.5625 163.429688 18.375 160.09375 9.09375 147.824219 C 10.480469 147.625 11.835938 147.324219 13.15625 146.9375 C 25.074219 143.457031 33.949219 132.851562 34.851562 120.042969 C 34.90625 119.324219 34.929688 118.601562 34.929688 117.875 C 34.929688 107.195312 29.402344 97.808594 21.050781 92.421875 C 20.519531 92.074219 19.972656 91.746094 19.414062 91.4375 C 15.046875 88.992188 10.015625 87.597656 4.65625 87.597656 C 3.710938 87.597656 2.773438 87.640625 1.851562 87.726562 C 7.617188 68.515625 17.570312 50.117188 21.90625 36.195312 C 23.613281 30.726562 24.449219 25.949219 23.824219 22.082031 C 20.449219 1.167969 2.320312 4.628906 0.546875 5.019531 C 0.523438 5.023438 0.5 5.03125 0.472656 5.039062 C 0.445312 5.046875 0.425781 5.050781 0.417969 5.050781 C 8.226562 1.820312 25.015625 1.507812 50.785156 1.273438 C 62.382812 1.164062 76.226562 0.484375 88.578125 1.941406 C 103.683594 3.722656 116.546875 8.703125 120.320312 21.84375 C 121.371094 25.5 121.753906 29.238281 121.660156 33.03125 Z M 121.667969 33.03125 " fill-opacity="1" fill-rule="nonzero"/></g></g></g></g><path fill="#445" d="M 122.324219 243.632812 C 114.0625 243.632812 102.980469 240.730469 93.539062 228.246094 L 92.824219 227.296875 L 94 227.128906 C 95.316406 226.941406 96.652344 226.652344 97.964844 226.265625 C 109.773438 222.8125 118.292969 212.253906 119.15625 199.992188 C 119.207031 199.320312 119.234375 198.609375 119.234375 197.875 C 119.234375 187.78125 114.167969 178.484375 105.675781 173.011719 C 105.15625 172.675781 104.617188 172.347656 104.078125 172.050781 C 99.703125 169.597656 94.714844 168.300781 89.664062 168.300781 C 88.746094 168.300781 87.824219 168.34375 86.921875 168.425781 L 85.886719 168.523438 L 86.1875 167.527344 C 89.378906 156.894531 93.917969 146.34375 97.925781 137.035156 C 101.210938 129.40625 104.308594 122.199219 106.242188 115.988281 C 108.070312 110.128906 108.691406 105.617188 108.136719 102.199219 C 107.085938 95.6875 104.476562 90.976562 100.378906 88.1875 C 94.214844 83.996094 86.558594 85.519531 85.707031 85.707031 L 85.59375 85.734375 C 85.617188 85.730469 85.636719 85.722656 85.648438 85.71875 L 85.640625 85.71875 C 85.640625 85.71875 85.644531 85.71875 85.648438 85.71875 L 85.15625 84.40625 C 93.089844 81.125 109.5625 80.8125 135.785156 80.574219 C 138.109375 80.550781 140.488281 80.507812 143.007812 80.460938 C 152.730469 80.28125 163.75 80.078125 173.667969 81.246094 C 182.222656 82.253906 188.886719 84.144531 194.046875 87.023438 C 200.171875 90.441406 204.195312 95.363281 206.003906 101.652344 C 207.023438 105.199219 207.46875 108.925781 207.371094 113.046875 C 207.132812 123.109375 203.597656 133.460938 200.179688 143.46875 C 196.394531 154.550781 192.824219 165.019531 193.964844 174.132812 C 194.683594 179.890625 197.011719 185.835938 200.890625 191.804688 L 201.539062 192.808594 L 149.890625 196.257812 L 149.855469 196.257812 C 149.773438 196.257812 141.082031 196.085938 137.929688 203.125 C 135.269531 209.0625 134.992188 214.714844 134.984375 216.667969 L 158.378906 214.925781 L 158.058594 215.917969 C 157.351562 218.105469 156.667969 219.617188 156.546875 219.886719 C 156.324219 220.558594 153.851562 227.628906 146.691406 234.785156 C 143.523438 237.957031 135.007812 242.910156 124.535156 243.558594 L 124.511719 243.558594 C 124.472656 243.5625 124.441406 243.566406 124.410156 243.566406 C 124.378906 243.570312 124.351562 243.570312 124.332031 243.570312 C 123.683594 243.609375 123.011719 243.628906 122.324219 243.628906 Z M 95.375 228.324219 C 105.082031 240.550781 116.402344 242.621094 124.269531 242.175781 L 124.367188 242.171875 C 124.382812 242.171875 124.402344 242.171875 124.421875 242.167969 L 124.453125 242.167969 C 134.535156 241.542969 142.683594 236.824219 145.703125 233.800781 C 152.816406 226.6875 155.207031 219.488281 155.230469 219.417969 L 155.261719 219.335938 C 155.269531 219.320312 155.789062 218.207031 156.390625 216.488281 L 133.632812 218.175781 L 133.59375 217.464844 C 133.578125 217.171875 133.230469 210.191406 136.648438 202.554688 C 140.117188 194.8125 149.121094 194.84375 149.863281 194.855469 L 199.070312 191.566406 C 195.457031 185.753906 193.269531 179.953125 192.566406 174.308594 C 191.386719 164.871094 195.011719 154.253906 198.847656 143.015625 C 202.230469 133.105469 205.726562 122.859375 205.964844 113.011719 C 206.058594 109.039062 205.628906 105.445312 204.648438 102.039062 C 201.460938 90.933594 191.5625 84.769531 173.5 82.636719 C 163.675781 81.476562 152.707031 81.679688 143.03125 81.863281 C 140.507812 81.910156 138.128906 81.953125 135.796875 81.972656 C 115.628906 82.160156 101.246094 82.417969 92.265625 83.960938 C 95.027344 84.214844 98.222656 85.027344 101.164062 87.027344 C 105.59375 90.039062 108.40625 95.066406 109.523438 101.972656 C 110.117188 105.660156 109.5 110.246094 107.582031 116.402344 C 105.625 122.683594 102.511719 129.921875 99.210938 137.585938 C 95.34375 146.574219 90.976562 156.726562 87.828125 166.949219 C 88.433594 166.914062 89.046875 166.894531 89.660156 166.894531 C 94.953125 166.894531 100.175781 168.253906 104.761719 170.820312 C 105.328125 171.136719 105.890625 171.476562 106.4375 171.828125 C 115.328125 177.566406 120.636719 187.300781 120.636719 197.871094 C 120.636719 198.640625 120.609375 199.390625 120.554688 200.09375 C 119.652344 212.933594 110.730469 223.996094 98.355469 227.609375 C 97.371094 227.898438 96.371094 228.136719 95.375 228.320312 Z M 95.375 228.324219 " fill-opacity="1" fill-rule="nonzero"/><g mask="url(#190569d72c)"><g transform="matrix(1, 0, 0, 1, 124, 189)"><g clip-path="url(#ba926e059e)"><g clip-path="url(#8eb7e7a4af)"><path fill="#445" d="M 120.429688 25.742188 C 113.804688 40.71875 89.839844 46.871094 67.132812 49.394531 C 45.316406 51.816406 3.710938 53.71875 0.492188 53.863281 C 10.484375 53.246094 18.929688 48.566406 22.199219 45.292969 C 29.53125 37.960938 31.898438 30.628906 31.898438 30.628906 C 31.898438 30.628906 32.636719 29.054688 33.394531 26.703125 C 34.460938 23.394531 35.570312 18.5625 34.707031 14.441406 C 33.238281 7.398438 25.878906 6.554688 25.878906 6.554688 L 76.300781 3.1875 L 117.597656 0.429688 C 118.300781 0.382812 118.980469 0.71875 119.359375 1.316406 C 121.199219 4.210938 125.871094 13.433594 120.429688 25.742188 Z M 120.429688 25.742188 " fill-opacity="1" fill-rule="nonzero"/></g></g></g></g><path fill="#445" d="M 124.523438 243.5625 L 124.449219 242.164062 C 134.53125 241.539062 142.683594 236.820312 145.699219 233.800781 C 152.832031 226.671875 155.203125 219.488281 155.226562 219.414062 L 155.257812 219.332031 C 155.265625 219.316406 155.988281 217.765625 156.722656 215.488281 C 157.769531 212.242188 158.84375 207.542969 158.015625 203.585938 C 156.671875 197.140625 150.074219 196.289062 149.796875 196.253906 L 149.832031 194.859375 L 200.25 191.492188 L 241.546875 188.734375 C 242.515625 188.667969 243.433594 189.132812 243.949219 189.941406 C 244.890625 191.421875 246.574219 194.550781 247.3125 198.882812 C 248.21875 204.179688 247.464844 209.613281 245.070312 215.027344 C 239.488281 227.644531 221.367188 235.742188 191.207031 239.09375 C 169.632812 241.488281 129.074219 243.359375 124.523438 243.5625 Z M 156.546875 219.890625 C 156.324219 220.566406 153.851562 227.636719 146.691406 234.789062 C 144.585938 236.898438 140.121094 239.792969 134.285156 241.6875 C 148.734375 240.953125 175.105469 239.472656 191.054688 237.699219 C 204.164062 236.242188 215.097656 233.847656 223.558594 230.585938 C 234.035156 226.542969 240.839844 221.117188 243.785156 214.457031 C 249.144531 202.339844 244.359375 193.203125 242.765625 190.691406 C 242.527344 190.316406 242.097656 190.101562 241.640625 190.132812 L 153.585938 196.015625 C 155.871094 197.128906 158.546875 199.261719 159.390625 203.300781 C 160.28125 207.5625 159.15625 212.515625 158.054688 215.921875 C 157.351562 218.109375 156.667969 219.621094 156.546875 219.890625 Z M 156.546875 219.890625 " fill-opacity="1" fill-rule="nonzero"/><g mask="url(#926dbf5e20)"><g transform="matrix(1, 0, 0, 1, 133, 195)"><g clip-path="url(#4aab92de48)"><g clip-path="url(#8f25af4404)"><path fill="#445" d="M 24.390625 20.707031 L 1.292969 22.421875 C 1.292969 22.421875 0.898438 15.40625 4.289062 7.839844 C 7.679688 0.269531 16.878906 0.558594 16.878906 0.558594 C 16.878906 0.558594 24.234375 1.398438 25.703125 8.445312 C 26.566406 12.5625 25.457031 17.402344 24.390625 20.707031 Z M 24.390625 20.707031 " fill-opacity="1" fill-rule="nonzero"/></g></g></g></g><path fill="#445" d="M 133.632812 218.175781 L 133.59375 217.460938 C 133.574219 217.167969 133.226562 210.1875 136.648438 202.550781 C 140.1875 194.644531 149.503906 194.847656 149.898438 194.855469 L 149.957031 194.859375 C 150.035156 194.871094 157.835938 195.847656 159.390625 203.300781 C 160.285156 207.558594 159.160156 212.515625 158.058594 215.921875 L 157.910156 216.371094 Z M 149.773438 196.257812 C 148.882812 196.257812 140.914062 196.453125 137.925781 203.125 C 135.265625 209.0625 134.988281 214.714844 134.980469 216.667969 L 156.863281 215.042969 C 157.859375 211.824219 158.804688 207.367188 158.015625 203.585938 C 156.703125 197.296875 150.390625 196.332031 149.824219 196.257812 C 149.808594 196.257812 149.792969 196.257812 149.769531 196.257812 Z M 149.773438 196.257812 " fill-opacity="1" fill-rule="nonzero"/><path fill="#445" d="M 146.644531 160.730469 L 115.210938 160.730469 C 114.824219 160.730469 114.511719 160.417969 114.511719 160.03125 C 114.511719 159.640625 114.824219 159.328125 115.210938 159.328125 L 146.644531 159.328125 C 147.035156 159.328125 147.347656 159.640625 147.347656 160.03125 C 147.347656 160.417969 147.035156 160.730469 146.644531 160.730469 Z M 146.644531 160.730469 " fill-opacity="1" fill-rule="nonzero"/><path fill="#445" d="M 178.835938 160.730469 L 157.078125 160.730469 C 156.6875 160.730469 156.375 160.417969 156.375 160.03125 C 156.375 159.640625 156.6875 159.328125 157.078125 159.328125 L 178.835938 159.328125 C 179.222656 159.328125 179.539062 159.640625 179.539062 160.03125 C 179.539062 160.417969 179.222656 160.730469 178.835938 160.730469 Z M 178.835938 160.730469 " fill-opacity="1" fill-rule="nonzero"/><path fill="#445" d="M 169.375 171.375 L 124.492188 171.375 C 124.101562 171.375 123.789062 171.0625 123.789062 170.675781 C 123.789062 170.285156 124.101562 169.972656 124.492188 169.972656 L 169.375 169.972656 C 169.761719 169.972656 170.078125 170.285156 170.078125 170.675781 C 170.078125 171.0625 169.761719 171.375 169.375 171.375 Z M 169.375 171.375 " fill-opacity="1" fill-rule="nonzero"/><path fill="#445" d="M 146.644531 192.664062 L 129.167969 192.664062 C 128.777344 192.664062 128.464844 192.347656 128.464844 191.960938 C 128.464844 191.574219 128.777344 191.257812 129.167969 191.257812 L 146.644531 191.257812 C 147.035156 191.257812 147.347656 191.574219 147.347656 191.960938 C 147.347656 192.347656 147.035156 192.664062 146.644531 192.664062 Z M 146.644531 192.664062 " fill-opacity="1" fill-rule="nonzero"/><path fill="#445" d="M 146.933594 228.140625 L 122.074219 228.140625 C 121.683594 228.140625 121.371094 227.824219 121.371094 227.4375 C 121.371094 227.050781 121.683594 226.734375 122.074219 226.734375 L 146.933594 226.734375 C 147.320312 226.734375 147.632812 227.050781 147.632812 227.4375 C 147.632812 227.824219 147.320312 228.140625 146.933594 228.140625 Z M 146.933594 228.140625 " fill-opacity="1" fill-rule="nonzero"/><path fill="#445" d="M 142.488281 113.195312 C 134.476562 113.195312 134.304688 106.101562 134.300781 106.03125 C 134.296875 105.640625 134.605469 105.324219 134.996094 105.320312 C 135.382812 105.324219 135.699219 105.625 135.703125 106.011719 C 135.707031 106.25 135.882812 111.792969 142.488281 111.792969 C 144.496094 111.792969 146.054688 111.222656 147.117188 110.097656 C 148.894531 108.210938 148.753906 105.335938 148.753906 105.304688 C 148.730469 104.921875 149.027344 104.589844 149.414062 104.566406 C 149.800781 104.539062 150.128906 104.835938 150.152344 105.222656 C 150.164062 105.363281 150.339844 108.714844 148.148438 111.046875 C 146.808594 112.46875 144.90625 113.195312 142.488281 113.195312 Z M 142.488281 113.195312 " fill-opacity="1" fill-rule="nonzero"/><path fill="#445" d="M 170.878906 113.195312 C 162.867188 113.195312 162.695312 106.101562 162.691406 106.03125 C 162.6875 105.640625 163 105.324219 163.386719 105.320312 C 163.769531 105.324219 164.089844 105.625 164.097656 106.011719 C 164.101562 106.253906 164.277344 111.792969 170.878906 111.792969 C 172.886719 111.792969 174.445312 111.222656 175.507812 110.097656 C 177.289062 108.210938 177.148438 105.335938 177.144531 105.304688 C 177.125 104.921875 177.417969 104.589844 177.804688 104.566406 C 178.191406 104.539062 178.523438 104.835938 178.546875 105.222656 C 178.554688 105.363281 178.734375 108.714844 176.539062 111.046875 C 175.199219 112.46875 173.296875 113.195312 170.882812 113.195312 Z M 170.878906 113.195312 " fill-opacity="1" fill-rule="nonzero"/><g mask="url(#c883ee4f5e)"><g transform="matrix(1, 0, 0, 1, 152, 118)"><g clip-path="url(#7f36962524)"><g clip-path="url(#68c1aeddc8)"><path fill="#445" d="M 3.605469 8.8125 C 5.203125 8.8125 6.496094 7.046875 6.496094 4.871094 C 6.496094 2.695312 5.203125 0.929688 3.605469 0.929688 C 2.007812 0.929688 0.714844 2.695312 0.714844 4.871094 C 0.714844 7.046875 2.007812 8.8125 3.605469 8.8125 Z M 3.605469 8.8125 " fill-opacity="1" fill-rule="nonzero"/></g></g></g></g><g mask="url(#361cd6dc24)"><g transform="matrix(1, 0, 0, 1, 173, 70)"><g clip-path="url(#d55b928eef)"><g clip-path="url(#a83f3565e6)"><path fill="#445" d="M 65.140625 35.417969 C 64.648438 35.316406 64.140625 35.265625 63.617188 35.265625 C 61.363281 35.265625 59.335938 36.230469 57.925781 37.773438 C 55.691406 34.761719 52.59375 31.390625 49.824219 31.214844 C 44.78125 30.898438 39.816406 39.898438 36.738281 41.464844 C 33.855469 42.929688 33.675781 43.023438 33.667969 43.03125 C 33.753906 39.238281 33.375 35.5 32.324219 31.84375 C 28.550781 18.703125 15.6875 13.722656 0.582031 11.941406 C 0.582031 11.941406 3.785156 2.835938 13.089844 1.574219 C 22.394531 0.3125 34.847656 0.3125 42.257812 1.574219 C 49.667969 2.835938 59.445312 9.933594 62.597656 18.914062 C 64.492188 24.316406 65.023438 30.964844 65.144531 35.414062 Z M 65.140625 35.417969 " fill-opacity="1" fill-rule="nonzero"/></g></g></g></g><path fill="#445" d="M 205.933594 114.351562 L 205.96875 113.011719 C 206.0625 109.039062 205.628906 105.445312 204.648438 102.039062 C 201.460938 90.933594 191.5625 84.769531 173.5 82.636719 L 172.628906 82.535156 L 172.921875 81.707031 C 173.054688 81.320312 176.378906 72.179688 185.992188 70.875 C 195.308594 69.613281 207.941406 69.613281 215.375 70.878906 C 222.859375 72.15625 232.972656 79.324219 236.257812 88.683594 C 238.167969 94.132812 238.714844 100.777344 238.84375 105.394531 L 238.867188 106.277344 L 238.003906 106.105469 C 237.550781 106.011719 237.082031 105.964844 236.617188 105.964844 C 234.65625 105.964844 232.769531 106.796875 231.441406 108.246094 L 230.867188 108.875 L 230.359375 108.191406 C 227.449219 104.269531 224.753906 102.042969 222.777344 101.917969 C 222.707031 101.914062 222.636719 101.910156 222.566406 101.910156 C 219.742188 101.910156 216.695312 105.347656 214.238281 108.128906 C 212.652344 109.917969 211.285156 111.46875 210.054688 112.089844 C 208.128906 113.070312 207.179688 113.554688 207.023438 113.636719 Z M 174.59375 81.359375 C 182.703125 82.394531 189.074219 84.25 194.042969 87.023438 C 200.167969 90.441406 204.191406 95.363281 205.996094 101.652344 C 206.917969 104.863281 207.375 108.214844 207.378906 111.875 C 207.835938 111.644531 208.484375 111.3125 209.417969 110.839844 C 210.410156 110.335938 211.757812 108.808594 213.1875 107.195312 C 216.050781 103.960938 219.292969 100.289062 222.867188 100.515625 C 225.207031 100.660156 227.941406 102.742188 230.996094 106.707031 C 232.535156 105.335938 234.539062 104.558594 236.613281 104.558594 C 236.878906 104.558594 237.144531 104.570312 237.410156 104.597656 C 237.246094 100.140625 236.667969 94.105469 234.929688 89.148438 C 231.8125 80.269531 222.230469 73.472656 215.136719 72.261719 C 207.820312 71.019531 195.375 71.019531 186.175781 72.265625 C 179.035156 73.238281 175.621094 79.164062 174.589844 81.359375 Z M 174.59375 81.359375 " fill-opacity="1" fill-rule="nonzero"/><g mask="url(#658795e39d)"><g transform="matrix(1, 0, 0, 1, 228, 104)"><g clip-path="url(#96b448e125)"><g clip-path="url(#13be582a89)"><path fill="#445" d="M 16.34375 8.988281 C 16.34375 13.257812 12.882812 16.714844 8.617188 16.714844 C 4.351562 16.714844 0.894531 13.257812 0.894531 8.988281 C 0.894531 6.976562 1.664062 5.144531 2.925781 3.773438 C 4.335938 2.230469 6.367188 1.265625 8.617188 1.265625 C 9.140625 1.265625 9.648438 1.316406 10.140625 1.417969 C 13.679688 2.121094 16.34375 5.246094 16.34375 8.988281 Z M 16.34375 8.988281 " fill-opacity="1" fill-rule="nonzero"/></g></g></g></g><path fill="#445" d="M 236.617188 121.417969 C 231.972656 121.417969 228.191406 117.640625 228.191406 112.992188 C 228.191406 110.875 228.980469 108.855469 230.410156 107.300781 C 232 105.5625 234.261719 104.566406 236.617188 104.566406 C 237.175781 104.566406 237.734375 104.621094 238.277344 104.730469 C 242.199219 105.515625 245.046875 108.992188 245.046875 112.996094 C 245.046875 117.640625 241.265625 121.421875 236.617188 121.421875 Z M 236.617188 105.96875 C 234.65625 105.96875 232.769531 106.800781 231.441406 108.25 C 230.25 109.542969 229.59375 111.230469 229.59375 112.992188 C 229.59375 116.867188 232.746094 120.015625 236.617188 120.015625 C 240.492188 120.015625 243.640625 116.867188 243.640625 112.992188 C 243.640625 109.65625 241.269531 106.757812 238.003906 106.105469 C 237.550781 106.015625 237.082031 105.96875 236.617188 105.96875 Z M 236.617188 105.96875 " fill-opacity="1" fill-rule="nonzero"/><g mask="url(#7ee1277439)"><g transform="matrix(1, 0, 0, 1, 59, 167)"><g clip-path="url(#e84f2d0f2f)"><g clip-path="url(#41998c6e9d)"><path fill="#445" d="M 47.054688 5.421875 C 46.523438 5.074219 45.976562 4.746094 45.417969 4.4375 C 41.050781 1.992188 36.019531 0.597656 30.660156 0.597656 C 29.714844 0.597656 28.78125 0.640625 27.855469 0.726562 C 25.554688 0.9375 23.332031 1.40625 21.210938 2.105469 C 18.519531 2.984375 16.003906 4.234375 13.699219 5.792969 C 8.472656 9.328125 4.414062 14.460938 2.214844 20.488281 C 1.753906 21.746094 1.378906 23.046875 1.085938 24.375 C 0.625 26.46875 0.382812 28.644531 0.382812 30.875 C 0.382812 42.289062 6.699219 52.226562 16.03125 57.386719 C 18.675781 58.847656 21.570312 59.925781 24.625 60.542969 C 26.578125 60.941406 28.589844 61.144531 30.660156 61.144531 C 32.167969 61.144531 33.648438 61.035156 35.097656 60.820312 C 36.488281 60.621094 37.839844 60.320312 39.160156 59.933594 C 51.078125 56.453125 59.953125 45.847656 60.855469 33.035156 C 60.910156 32.320312 60.933594 31.597656 60.933594 30.867188 C 60.933594 20.1875 55.410156 10.804688 47.054688 5.417969 Z M 42.425781 33.957031 C 42.425781 38.515625 41.40625 42.035156 39.355469 44.507812 C 37.703125 46.503906 35.511719 47.6875 32.773438 48.074219 C 32.109375 48.175781 31.414062 48.222656 30.691406 48.222656 C 29.605469 48.222656 28.59375 48.117188 27.652344 47.910156 C 25.328125 47.398438 23.441406 46.253906 21.976562 44.484375 C 20.222656 42.363281 19.21875 39.5 18.960938 35.894531 C 18.914062 35.273438 18.894531 34.628906 18.894531 33.957031 L 18.894531 27.792969 C 18.894531 25.066406 19.261719 22.710938 19.996094 20.726562 C 20.300781 19.898438 20.671875 19.128906 21.109375 18.433594 C 21.371094 18.007812 21.652344 17.613281 21.964844 17.238281 C 22.699219 16.351562 23.546875 15.625 24.5 15.054688 C 26.203125 14.039062 28.25 13.53125 30.648438 13.53125 C 34.390625 13.53125 37.292969 14.773438 39.34375 17.261719 C 40.714844 18.921875 41.628906 21.03125 42.082031 23.597656 C 42.21875 24.363281 42.316406 25.171875 42.367188 26.019531 C 42.410156 26.597656 42.429688 27.195312 42.429688 27.8125 L 42.429688 33.957031 Z M 42.425781 33.957031 " fill-opacity="1" fill-rule="nonzero"/></g></g></g></g><path fill="#445" d="M 89.65625 228.851562 C 87.589844 228.851562 85.53125 228.644531 83.546875 228.246094 L 83.484375 228.234375 C 80.398438 227.609375 77.441406 226.523438 74.695312 225.007812 C 64.816406 219.542969 58.679688 209.148438 58.679688 197.878906 C 58.679688 195.652344 58.917969 193.4375 59.386719 191.296875 L 59.402344 191.226562 C 59.703125 189.863281 60.089844 188.527344 60.554688 187.253906 C 62.765625 181.191406 66.941406 175.847656 72.308594 172.214844 C 74.6875 170.597656 77.277344 169.328125 79.992188 168.441406 C 82.191406 167.71875 84.480469 167.246094 86.792969 167.035156 C 87.730469 166.945312 88.695312 166.902344 89.660156 166.902344 C 94.953125 166.902344 100.175781 168.261719 104.765625 170.832031 C 105.3125 171.136719 105.859375 171.46875 106.441406 171.839844 C 115.332031 177.578125 120.640625 187.3125 120.640625 197.882812 C 120.640625 198.640625 120.613281 199.386719 120.558594 200.101562 C 119.652344 212.941406 110.730469 224.003906 98.359375 227.621094 C 96.980469 228.023438 95.578125 228.328125 94.199219 228.523438 C 92.734375 228.742188 91.203125 228.855469 89.660156 228.855469 Z M 83.691406 226.84375 L 83.765625 226.855469 C 85.675781 227.246094 87.65625 227.445312 89.65625 227.445312 C 91.132812 227.445312 92.589844 227.335938 93.996094 227.125 C 95.3125 226.941406 96.648438 226.652344 97.960938 226.265625 C 109.773438 222.8125 118.289062 212.253906 119.152344 199.988281 C 119.207031 199.304688 119.234375 198.59375 119.234375 197.875 C 119.234375 187.78125 114.164062 178.484375 105.675781 173.011719 C 105.121094 172.652344 104.597656 172.335938 104.078125 172.046875 C 99.695312 169.59375 94.710938 168.296875 89.65625 168.296875 C 88.738281 168.296875 87.816406 168.335938 86.917969 168.425781 C 84.707031 168.625 82.527344 169.078125 80.429688 169.769531 C 77.835938 170.617188 75.367188 171.828125 73.09375 173.371094 C 67.96875 176.84375 63.984375 181.941406 61.871094 187.730469 C 61.433594 188.921875 61.070312 190.171875 60.789062 191.449219 L 60.773438 191.527344 C 60.316406 193.589844 60.085938 195.722656 60.085938 197.875 C 60.085938 208.632812 65.945312 218.554688 75.371094 223.773438 C 77.972656 225.214844 80.773438 226.246094 83.691406 226.839844 Z M 83.691406 226.84375 " fill-opacity="1" fill-rule="nonzero"/><path fill="#445" d="M 98.34375 184.261719 C 96.285156 181.773438 93.386719 180.53125 89.644531 180.53125 C 85.90625 180.53125 83.011719 181.769531 80.964844 184.238281 C 78.914062 186.710938 77.894531 190.230469 77.894531 194.789062 L 77.894531 200.960938 C 77.894531 205.492188 78.921875 209 80.976562 211.488281 C 83.03125 213.976562 85.9375 215.222656 89.695312 215.222656 C 93.453125 215.222656 96.308594 213.984375 98.355469 211.511719 C 100.40625 209.039062 101.425781 205.523438 101.425781 200.960938 L 101.425781 194.8125 C 101.425781 190.269531 100.398438 186.753906 98.34375 184.261719 Z M 93.609375 202.140625 C 93.597656 204.570312 93.273438 206.351562 92.636719 207.488281 C 92 208.625 91.023438 209.191406 89.691406 209.191406 C 88.363281 209.191406 87.3125 208.609375 86.679688 207.441406 C 86.042969 206.273438 85.730469 204.433594 85.730469 201.910156 L 85.730469 193.285156 C 85.773438 191.027344 86.101562 189.34375 86.714844 188.230469 C 87.324219 187.117188 88.300781 186.5625 89.644531 186.5625 C 90.992188 186.5625 92.027344 187.160156 92.660156 188.359375 C 93.296875 189.554688 93.609375 191.367188 93.609375 193.792969 Z M 93.609375 202.140625 " fill-opacity="1" fill-rule="nonzero"/><g mask="url(#bbf337458d)"><g transform="matrix(1, 0, 0, 1, 85, 186)"><g clip-path="url(#b944bae41a)"><g clip-path="url(#7c28278e2b)"><path fill="#445" d="M 8.609375 7.792969 L 8.609375 16.140625 C 8.597656 18.566406 8.273438 20.351562 7.636719 21.484375 C 7 22.621094 6.023438 23.1875 4.691406 23.1875 C 3.363281 23.1875 2.3125 22.605469 1.679688 21.441406 C 1.042969 20.273438 0.730469 18.429688 0.730469 15.90625 L 0.730469 7.28125 C 0.773438 5.023438 1.101562 3.339844 1.714844 2.226562 C 2.324219 1.113281 3.300781 0.558594 4.644531 0.558594 C 5.992188 0.558594 7.027344 1.160156 7.660156 2.355469 C 8.296875 3.554688 8.609375 5.367188 8.609375 7.792969 Z M 8.609375 7.792969 " fill-opacity="1" fill-rule="nonzero"/></g></g></g></g><g mask="url(#9ac901ef24)"><g transform="matrix(1, 0, 0, 1, 155, 47)"><g clip-path="url(#a9f61f1a57)"><g clip-path="url(#f707a9d561)"><path fill="#445" d="M 7.316406 21.34375 L 17.886719 21.34375 L 17.886719 25.445312 L 0.667969 25.445312 L 0.667969 22.636719 L 11.207031 7.453125 L 0.605469 7.453125 L 0.605469 3.335938 L 17.78125 3.335938 L 17.78125 6.070312 L 7.320312 21.347656 Z M 7.316406 21.34375 " fill-opacity="1" fill-rule="nonzero"/></g><path fill="#445" d="M 27.457031 14.757812 L 34.710938 14.757812 L 34.710938 17.570312 L 22.890625 17.570312 L 22.890625 15.644531 L 30.125 5.222656 L 22.847656 5.222656 L 22.847656 2.398438 L 34.636719 2.398438 L 34.636719 4.273438 L 27.453125 14.757812 Z M 27.457031 14.757812 " fill-opacity="1" fill-rule="nonzero"/><g clip-path="url(#6e65749c6b)"><path fill="#445" d="M 44.285156 9.167969 L 49.179688 9.167969 L 49.179688 11.066406 L 41.207031 11.066406 L 41.207031 9.765625 L 46.085938 2.738281 L 41.179688 2.738281 L 41.179688 0.832031 L 49.128906 0.832031 L 49.128906 2.097656 Z M 44.285156 9.167969 " fill-opacity="1" fill-rule="nonzero"/></g></g></g></g></svg>